G04 #@! TF.FileFunction,Legend,Top*
%FSLAX46Y46*%
G04 Gerber Fmt 4.6, Leading zero omitted, Abs format (unit mm)*
G04 Created by KiCad (PCBNEW 4.0.5) date Mon Apr 20 22:21:36 2020*
%MOMM*%
%LPD*%
G01*
G04 APERTURE LIST*
%ADD10C,0.100000*%
%ADD11C,0.066000*%
%ADD12C,0.250000*%
%ADD13C,0.120000*%
G04 APERTURE END LIST*
D10*
D11*
X105817999Y-96818571D02*
X105817999Y-96158571D01*
X105975142Y-96158571D01*
X106069427Y-96190000D01*
X106132285Y-96252857D01*
X106163713Y-96315714D01*
X106195142Y-96441429D01*
X106195142Y-96535714D01*
X106163713Y-96661429D01*
X106132285Y-96724286D01*
X106069427Y-96787143D01*
X105975142Y-96818571D01*
X105817999Y-96818571D01*
X106603713Y-96158571D02*
X106729427Y-96158571D01*
X106792285Y-96190000D01*
X106855142Y-96252857D01*
X106886570Y-96378571D01*
X106886570Y-96598571D01*
X106855142Y-96724286D01*
X106792285Y-96787143D01*
X106729427Y-96818571D01*
X106603713Y-96818571D01*
X106540856Y-96787143D01*
X106477999Y-96724286D01*
X106446570Y-96598571D01*
X106446570Y-96378571D01*
X106477999Y-96252857D01*
X106540856Y-96190000D01*
X106603713Y-96158571D01*
X107106571Y-96158571D02*
X107263714Y-96818571D01*
X107389428Y-96347143D01*
X107515142Y-96818571D01*
X107672285Y-96158571D01*
X107923714Y-96818571D02*
X107923714Y-96158571D01*
X108300857Y-96818571D01*
X108300857Y-96158571D01*
X107263714Y-91078571D02*
X107263714Y-91612857D01*
X107295142Y-91675714D01*
X107326571Y-91707143D01*
X107389428Y-91738571D01*
X107515142Y-91738571D01*
X107578000Y-91707143D01*
X107609428Y-91675714D01*
X107640857Y-91612857D01*
X107640857Y-91078571D01*
X107955143Y-91738571D02*
X107955143Y-91078571D01*
X108206571Y-91078571D01*
X108269429Y-91110000D01*
X108300857Y-91141429D01*
X108332286Y-91204286D01*
X108332286Y-91298571D01*
X108300857Y-91361429D01*
X108269429Y-91392857D01*
X108206571Y-91424286D01*
X107955143Y-91424286D01*
X143917999Y-96818571D02*
X143917999Y-96158571D01*
X144075142Y-96158571D01*
X144169427Y-96190000D01*
X144232285Y-96252857D01*
X144263713Y-96315714D01*
X144295142Y-96441429D01*
X144295142Y-96535714D01*
X144263713Y-96661429D01*
X144232285Y-96724286D01*
X144169427Y-96787143D01*
X144075142Y-96818571D01*
X143917999Y-96818571D01*
X144703713Y-96158571D02*
X144829427Y-96158571D01*
X144892285Y-96190000D01*
X144955142Y-96252857D01*
X144986570Y-96378571D01*
X144986570Y-96598571D01*
X144955142Y-96724286D01*
X144892285Y-96787143D01*
X144829427Y-96818571D01*
X144703713Y-96818571D01*
X144640856Y-96787143D01*
X144577999Y-96724286D01*
X144546570Y-96598571D01*
X144546570Y-96378571D01*
X144577999Y-96252857D01*
X144640856Y-96190000D01*
X144703713Y-96158571D01*
X145206571Y-96158571D02*
X145363714Y-96818571D01*
X145489428Y-96347143D01*
X145615142Y-96818571D01*
X145772285Y-96158571D01*
X146023714Y-96818571D02*
X146023714Y-96158571D01*
X146400857Y-96818571D01*
X146400857Y-96158571D01*
X145363714Y-91078571D02*
X145363714Y-91612857D01*
X145395142Y-91675714D01*
X145426571Y-91707143D01*
X145489428Y-91738571D01*
X145615142Y-91738571D01*
X145678000Y-91707143D01*
X145709428Y-91675714D01*
X145740857Y-91612857D01*
X145740857Y-91078571D01*
X146055143Y-91738571D02*
X146055143Y-91078571D01*
X146306571Y-91078571D01*
X146369429Y-91110000D01*
X146400857Y-91141429D01*
X146432286Y-91204286D01*
X146432286Y-91298571D01*
X146400857Y-91361429D01*
X146369429Y-91392857D01*
X146306571Y-91424286D01*
X146055143Y-91424286D01*
X152800571Y-97940714D02*
X153460571Y-97720714D01*
X152800571Y-97500714D01*
X153429143Y-96997857D02*
X153460571Y-97060714D01*
X153460571Y-97186428D01*
X153429143Y-97249286D01*
X153397714Y-97280714D01*
X153334857Y-97312143D01*
X153146286Y-97312143D01*
X153083429Y-97280714D01*
X153052000Y-97249286D01*
X153020571Y-97186428D01*
X153020571Y-97060714D01*
X153052000Y-96997857D01*
X153429143Y-96432143D02*
X153460571Y-96495000D01*
X153460571Y-96620714D01*
X153429143Y-96683572D01*
X153397714Y-96715000D01*
X153334857Y-96746429D01*
X153146286Y-96746429D01*
X153083429Y-96715000D01*
X153052000Y-96683572D01*
X153020571Y-96620714D01*
X153020571Y-96495000D01*
X153052000Y-96432143D01*
X114700571Y-97940714D02*
X115360571Y-97720714D01*
X114700571Y-97500714D01*
X115329143Y-96997857D02*
X115360571Y-97060714D01*
X115360571Y-97186428D01*
X115329143Y-97249286D01*
X115297714Y-97280714D01*
X115234857Y-97312143D01*
X115046286Y-97312143D01*
X114983429Y-97280714D01*
X114952000Y-97249286D01*
X114920571Y-97186428D01*
X114920571Y-97060714D01*
X114952000Y-96997857D01*
X115329143Y-96432143D02*
X115360571Y-96495000D01*
X115360571Y-96620714D01*
X115329143Y-96683572D01*
X115297714Y-96715000D01*
X115234857Y-96746429D01*
X115046286Y-96746429D01*
X114983429Y-96715000D01*
X114952000Y-96683572D01*
X114920571Y-96620714D01*
X114920571Y-96495000D01*
X114952000Y-96432143D01*
X114732000Y-94482857D02*
X114700571Y-94545714D01*
X114700571Y-94640000D01*
X114732000Y-94734285D01*
X114794857Y-94797143D01*
X114857714Y-94828571D01*
X114983429Y-94860000D01*
X115077714Y-94860000D01*
X115203429Y-94828571D01*
X115266286Y-94797143D01*
X115329143Y-94734285D01*
X115360571Y-94640000D01*
X115360571Y-94577143D01*
X115329143Y-94482857D01*
X115297714Y-94451428D01*
X115077714Y-94451428D01*
X115077714Y-94577143D01*
X115360571Y-94168571D02*
X114700571Y-94168571D01*
X115360571Y-93791428D01*
X114700571Y-93791428D01*
X115360571Y-93477142D02*
X114700571Y-93477142D01*
X114700571Y-93319999D01*
X114732000Y-93225714D01*
X114794857Y-93162856D01*
X114857714Y-93131428D01*
X114983429Y-93099999D01*
X115077714Y-93099999D01*
X115203429Y-93131428D01*
X115266286Y-93162856D01*
X115329143Y-93225714D01*
X115360571Y-93319999D01*
X115360571Y-93477142D01*
X114732000Y-91307857D02*
X114700571Y-91370714D01*
X114700571Y-91465000D01*
X114732000Y-91559285D01*
X114794857Y-91622143D01*
X114857714Y-91653571D01*
X114983429Y-91685000D01*
X115077714Y-91685000D01*
X115203429Y-91653571D01*
X115266286Y-91622143D01*
X115329143Y-91559285D01*
X115360571Y-91465000D01*
X115360571Y-91402143D01*
X115329143Y-91307857D01*
X115297714Y-91276428D01*
X115077714Y-91276428D01*
X115077714Y-91402143D01*
X115360571Y-90993571D02*
X114700571Y-90993571D01*
X115360571Y-90616428D01*
X114700571Y-90616428D01*
X115360571Y-90302142D02*
X114700571Y-90302142D01*
X114700571Y-90144999D01*
X114732000Y-90050714D01*
X114794857Y-89987856D01*
X114857714Y-89956428D01*
X114983429Y-89924999D01*
X115077714Y-89924999D01*
X115203429Y-89956428D01*
X115266286Y-89987856D01*
X115329143Y-90050714D01*
X115360571Y-90144999D01*
X115360571Y-90302142D01*
X152832000Y-94482857D02*
X152800571Y-94545714D01*
X152800571Y-94640000D01*
X152832000Y-94734285D01*
X152894857Y-94797143D01*
X152957714Y-94828571D01*
X153083429Y-94860000D01*
X153177714Y-94860000D01*
X153303429Y-94828571D01*
X153366286Y-94797143D01*
X153429143Y-94734285D01*
X153460571Y-94640000D01*
X153460571Y-94577143D01*
X153429143Y-94482857D01*
X153397714Y-94451428D01*
X153177714Y-94451428D01*
X153177714Y-94577143D01*
X153460571Y-94168571D02*
X152800571Y-94168571D01*
X153460571Y-93791428D01*
X152800571Y-93791428D01*
X153460571Y-93477142D02*
X152800571Y-93477142D01*
X152800571Y-93319999D01*
X152832000Y-93225714D01*
X152894857Y-93162856D01*
X152957714Y-93131428D01*
X153083429Y-93099999D01*
X153177714Y-93099999D01*
X153303429Y-93131428D01*
X153366286Y-93162856D01*
X153429143Y-93225714D01*
X153460571Y-93319999D01*
X153460571Y-93477142D01*
X152832000Y-91307857D02*
X152800571Y-91370714D01*
X152800571Y-91465000D01*
X152832000Y-91559285D01*
X152894857Y-91622143D01*
X152957714Y-91653571D01*
X153083429Y-91685000D01*
X153177714Y-91685000D01*
X153303429Y-91653571D01*
X153366286Y-91622143D01*
X153429143Y-91559285D01*
X153460571Y-91465000D01*
X153460571Y-91402143D01*
X153429143Y-91307857D01*
X153397714Y-91276428D01*
X153177714Y-91276428D01*
X153177714Y-91402143D01*
X153460571Y-90993571D02*
X152800571Y-90993571D01*
X153460571Y-90616428D01*
X152800571Y-90616428D01*
X153460571Y-90302142D02*
X152800571Y-90302142D01*
X152800571Y-90144999D01*
X152832000Y-90050714D01*
X152894857Y-89987856D01*
X152957714Y-89956428D01*
X153083429Y-89924999D01*
X153177714Y-89924999D01*
X153303429Y-89956428D01*
X153366286Y-89987856D01*
X153429143Y-90050714D01*
X153460571Y-90144999D01*
X153460571Y-90302142D01*
D12*
X91162143Y-131508571D02*
X91162143Y-130008571D01*
X91662143Y-131080000D01*
X92162143Y-130008571D01*
X92162143Y-131508571D01*
X92876429Y-131508571D02*
X92876429Y-130508571D01*
X92876429Y-130008571D02*
X92805000Y-130080000D01*
X92876429Y-130151429D01*
X92947857Y-130080000D01*
X92876429Y-130008571D01*
X92876429Y-130151429D01*
X94233572Y-131437143D02*
X94090715Y-131508571D01*
X93805001Y-131508571D01*
X93662143Y-131437143D01*
X93590715Y-131365714D01*
X93519286Y-131222857D01*
X93519286Y-130794286D01*
X93590715Y-130651429D01*
X93662143Y-130580000D01*
X93805001Y-130508571D01*
X94090715Y-130508571D01*
X94233572Y-130580000D01*
X94876429Y-131508571D02*
X94876429Y-130508571D01*
X94876429Y-130794286D02*
X94947857Y-130651429D01*
X95019286Y-130580000D01*
X95162143Y-130508571D01*
X95305000Y-130508571D01*
X96019286Y-131508571D02*
X95876428Y-131437143D01*
X95805000Y-131365714D01*
X95733571Y-131222857D01*
X95733571Y-130794286D01*
X95805000Y-130651429D01*
X95876428Y-130580000D01*
X96019286Y-130508571D01*
X96233571Y-130508571D01*
X96376428Y-130580000D01*
X96447857Y-130651429D01*
X96519286Y-130794286D01*
X96519286Y-131222857D01*
X96447857Y-131365714D01*
X96376428Y-131437143D01*
X96233571Y-131508571D01*
X96019286Y-131508571D01*
X97019286Y-130508571D02*
X97305000Y-131508571D01*
X97590714Y-130794286D01*
X97876429Y-131508571D01*
X98162143Y-130508571D01*
X98733572Y-131508571D02*
X98733572Y-130508571D01*
X98733572Y-130008571D02*
X98662143Y-130080000D01*
X98733572Y-130151429D01*
X98805000Y-130080000D01*
X98733572Y-130008571D01*
X98733572Y-130151429D01*
X99447858Y-131508571D02*
X99447858Y-130508571D01*
X99447858Y-130794286D02*
X99519286Y-130651429D01*
X99590715Y-130580000D01*
X99733572Y-130508571D01*
X99876429Y-130508571D01*
X100947857Y-131437143D02*
X100805000Y-131508571D01*
X100519286Y-131508571D01*
X100376429Y-131437143D01*
X100305000Y-131294286D01*
X100305000Y-130722857D01*
X100376429Y-130580000D01*
X100519286Y-130508571D01*
X100805000Y-130508571D01*
X100947857Y-130580000D01*
X101019286Y-130722857D01*
X101019286Y-130865714D01*
X100305000Y-131008571D01*
X102733571Y-129937143D02*
X101447857Y-131865714D01*
X103162143Y-131437143D02*
X103376429Y-131508571D01*
X103733572Y-131508571D01*
X103876429Y-131437143D01*
X103947858Y-131365714D01*
X104019286Y-131222857D01*
X104019286Y-131080000D01*
X103947858Y-130937143D01*
X103876429Y-130865714D01*
X103733572Y-130794286D01*
X103447858Y-130722857D01*
X103305000Y-130651429D01*
X103233572Y-130580000D01*
X103162143Y-130437143D01*
X103162143Y-130294286D01*
X103233572Y-130151429D01*
X103305000Y-130080000D01*
X103447858Y-130008571D01*
X103805000Y-130008571D01*
X104019286Y-130080000D01*
X104662143Y-131508571D02*
X104662143Y-130008571D01*
X105233571Y-130008571D01*
X105376429Y-130080000D01*
X105447857Y-130151429D01*
X105519286Y-130294286D01*
X105519286Y-130508571D01*
X105447857Y-130651429D01*
X105376429Y-130722857D01*
X105233571Y-130794286D01*
X104662143Y-130794286D01*
X106162143Y-131508571D02*
X106162143Y-130008571D01*
X107947857Y-129937143D02*
X106662143Y-131865714D01*
X108376429Y-131437143D02*
X108590715Y-131508571D01*
X108947858Y-131508571D01*
X109090715Y-131437143D01*
X109162144Y-131365714D01*
X109233572Y-131222857D01*
X109233572Y-131080000D01*
X109162144Y-130937143D01*
X109090715Y-130865714D01*
X108947858Y-130794286D01*
X108662144Y-130722857D01*
X108519286Y-130651429D01*
X108447858Y-130580000D01*
X108376429Y-130437143D01*
X108376429Y-130294286D01*
X108447858Y-130151429D01*
X108519286Y-130080000D01*
X108662144Y-130008571D01*
X109019286Y-130008571D01*
X109233572Y-130080000D01*
X109876429Y-131508571D02*
X109876429Y-130008571D01*
X110233572Y-130008571D01*
X110447857Y-130080000D01*
X110590715Y-130222857D01*
X110662143Y-130365714D01*
X110733572Y-130651429D01*
X110733572Y-130865714D01*
X110662143Y-131151429D01*
X110590715Y-131294286D01*
X110447857Y-131437143D01*
X110233572Y-131508571D01*
X109876429Y-131508571D01*
X91162143Y-134008571D02*
X91162143Y-132508571D01*
X91519286Y-132508571D01*
X91733571Y-132580000D01*
X91876429Y-132722857D01*
X91947857Y-132865714D01*
X92019286Y-133151429D01*
X92019286Y-133365714D01*
X91947857Y-133651429D01*
X91876429Y-133794286D01*
X91733571Y-133937143D01*
X91519286Y-134008571D01*
X91162143Y-134008571D01*
X93233571Y-133937143D02*
X93090714Y-134008571D01*
X92805000Y-134008571D01*
X92662143Y-133937143D01*
X92590714Y-133794286D01*
X92590714Y-133222857D01*
X92662143Y-133080000D01*
X92805000Y-133008571D01*
X93090714Y-133008571D01*
X93233571Y-133080000D01*
X93305000Y-133222857D01*
X93305000Y-133365714D01*
X92590714Y-133508571D01*
X93876428Y-133937143D02*
X94019285Y-134008571D01*
X94305000Y-134008571D01*
X94447857Y-133937143D01*
X94519285Y-133794286D01*
X94519285Y-133722857D01*
X94447857Y-133580000D01*
X94305000Y-133508571D01*
X94090714Y-133508571D01*
X93947857Y-133437143D01*
X93876428Y-133294286D01*
X93876428Y-133222857D01*
X93947857Y-133080000D01*
X94090714Y-133008571D01*
X94305000Y-133008571D01*
X94447857Y-133080000D01*
X95162143Y-134008571D02*
X95162143Y-133008571D01*
X95162143Y-132508571D02*
X95090714Y-132580000D01*
X95162143Y-132651429D01*
X95233571Y-132580000D01*
X95162143Y-132508571D01*
X95162143Y-132651429D01*
X96519286Y-133008571D02*
X96519286Y-134222857D01*
X96447857Y-134365714D01*
X96376429Y-134437143D01*
X96233572Y-134508571D01*
X96019286Y-134508571D01*
X95876429Y-134437143D01*
X96519286Y-133937143D02*
X96376429Y-134008571D01*
X96090715Y-134008571D01*
X95947857Y-133937143D01*
X95876429Y-133865714D01*
X95805000Y-133722857D01*
X95805000Y-133294286D01*
X95876429Y-133151429D01*
X95947857Y-133080000D01*
X96090715Y-133008571D01*
X96376429Y-133008571D01*
X96519286Y-133080000D01*
X97233572Y-133008571D02*
X97233572Y-134008571D01*
X97233572Y-133151429D02*
X97305000Y-133080000D01*
X97447858Y-133008571D01*
X97662143Y-133008571D01*
X97805000Y-133080000D01*
X97876429Y-133222857D01*
X97876429Y-134008571D01*
X99162143Y-133937143D02*
X99019286Y-134008571D01*
X98733572Y-134008571D01*
X98590715Y-133937143D01*
X98519286Y-133794286D01*
X98519286Y-133222857D01*
X98590715Y-133080000D01*
X98733572Y-133008571D01*
X99019286Y-133008571D01*
X99162143Y-133080000D01*
X99233572Y-133222857D01*
X99233572Y-133365714D01*
X98519286Y-133508571D01*
X100519286Y-134008571D02*
X100519286Y-132508571D01*
X100519286Y-133937143D02*
X100376429Y-134008571D01*
X100090715Y-134008571D01*
X99947857Y-133937143D01*
X99876429Y-133865714D01*
X99805000Y-133722857D01*
X99805000Y-133294286D01*
X99876429Y-133151429D01*
X99947857Y-133080000D01*
X100090715Y-133008571D01*
X100376429Y-133008571D01*
X100519286Y-133080000D01*
X102162143Y-133008571D02*
X102733572Y-133008571D01*
X102376429Y-134008571D02*
X102376429Y-132722857D01*
X102447857Y-132580000D01*
X102590715Y-132508571D01*
X102733572Y-132508571D01*
X103447858Y-134008571D02*
X103305000Y-133937143D01*
X103233572Y-133865714D01*
X103162143Y-133722857D01*
X103162143Y-133294286D01*
X103233572Y-133151429D01*
X103305000Y-133080000D01*
X103447858Y-133008571D01*
X103662143Y-133008571D01*
X103805000Y-133080000D01*
X103876429Y-133151429D01*
X103947858Y-133294286D01*
X103947858Y-133722857D01*
X103876429Y-133865714D01*
X103805000Y-133937143D01*
X103662143Y-134008571D01*
X103447858Y-134008571D01*
X104590715Y-134008571D02*
X104590715Y-133008571D01*
X104590715Y-133294286D02*
X104662143Y-133151429D01*
X104733572Y-133080000D01*
X104876429Y-133008571D01*
X105019286Y-133008571D01*
X107519286Y-134008571D02*
X107019286Y-133294286D01*
X106662143Y-134008571D02*
X106662143Y-132508571D01*
X107233571Y-132508571D01*
X107376429Y-132580000D01*
X107447857Y-132651429D01*
X107519286Y-132794286D01*
X107519286Y-133008571D01*
X107447857Y-133151429D01*
X107376429Y-133222857D01*
X107233571Y-133294286D01*
X106662143Y-133294286D01*
X109019286Y-133865714D02*
X108947857Y-133937143D01*
X108733571Y-134008571D01*
X108590714Y-134008571D01*
X108376429Y-133937143D01*
X108233571Y-133794286D01*
X108162143Y-133651429D01*
X108090714Y-133365714D01*
X108090714Y-133151429D01*
X108162143Y-132865714D01*
X108233571Y-132722857D01*
X108376429Y-132580000D01*
X108590714Y-132508571D01*
X108733571Y-132508571D01*
X108947857Y-132580000D01*
X109019286Y-132651429D01*
X109590714Y-132651429D02*
X109662143Y-132580000D01*
X109805000Y-132508571D01*
X110162143Y-132508571D01*
X110305000Y-132580000D01*
X110376429Y-132651429D01*
X110447857Y-132794286D01*
X110447857Y-132937143D01*
X110376429Y-133151429D01*
X109519286Y-134008571D01*
X110447857Y-134008571D01*
X111376428Y-132508571D02*
X111519285Y-132508571D01*
X111662142Y-132580000D01*
X111733571Y-132651429D01*
X111805000Y-132794286D01*
X111876428Y-133080000D01*
X111876428Y-133437143D01*
X111805000Y-133722857D01*
X111733571Y-133865714D01*
X111662142Y-133937143D01*
X111519285Y-134008571D01*
X111376428Y-134008571D01*
X111233571Y-133937143D01*
X111162142Y-133865714D01*
X111090714Y-133722857D01*
X111019285Y-133437143D01*
X111019285Y-133080000D01*
X111090714Y-132794286D01*
X111162142Y-132651429D01*
X111233571Y-132580000D01*
X111376428Y-132508571D01*
X113304999Y-134008571D02*
X112447856Y-134008571D01*
X112876428Y-134008571D02*
X112876428Y-132508571D01*
X112733571Y-132722857D01*
X112590713Y-132865714D01*
X112447856Y-132937143D01*
X114590713Y-133008571D02*
X114590713Y-134008571D01*
X114233570Y-132437143D02*
X113876427Y-133508571D01*
X114804999Y-133508571D01*
D10*
X150072286Y-90741571D02*
X150072286Y-91170143D01*
X150072286Y-90955857D02*
X149322286Y-90955857D01*
X149429429Y-91027286D01*
X149500857Y-91098714D01*
X149536571Y-91170143D01*
X149322286Y-90277285D02*
X149322286Y-90205857D01*
X149358000Y-90134428D01*
X149393714Y-90098714D01*
X149465143Y-90063000D01*
X149608000Y-90027285D01*
X149786571Y-90027285D01*
X149929429Y-90063000D01*
X150000857Y-90098714D01*
X150036571Y-90134428D01*
X150072286Y-90205857D01*
X150072286Y-90277285D01*
X150036571Y-90348714D01*
X150000857Y-90384428D01*
X149929429Y-90420143D01*
X149786571Y-90455857D01*
X149608000Y-90455857D01*
X149465143Y-90420143D01*
X149393714Y-90384428D01*
X149358000Y-90348714D01*
X149322286Y-90277285D01*
X149322286Y-89562999D02*
X149322286Y-89491571D01*
X149358000Y-89420142D01*
X149393714Y-89384428D01*
X149465143Y-89348714D01*
X149608000Y-89312999D01*
X149786571Y-89312999D01*
X149929429Y-89348714D01*
X150000857Y-89384428D01*
X150036571Y-89420142D01*
X150072286Y-89491571D01*
X150072286Y-89562999D01*
X150036571Y-89634428D01*
X150000857Y-89670142D01*
X149929429Y-89705857D01*
X149786571Y-89741571D01*
X149608000Y-89741571D01*
X149465143Y-89705857D01*
X149393714Y-89670142D01*
X149358000Y-89634428D01*
X149322286Y-89562999D01*
X150072286Y-88991571D02*
X149322286Y-88991571D01*
X150072286Y-88562999D02*
X149643714Y-88884428D01*
X149322286Y-88562999D02*
X149750857Y-88991571D01*
X111972286Y-90741571D02*
X111972286Y-91170143D01*
X111972286Y-90955857D02*
X111222286Y-90955857D01*
X111329429Y-91027286D01*
X111400857Y-91098714D01*
X111436571Y-91170143D01*
X111222286Y-90277285D02*
X111222286Y-90205857D01*
X111258000Y-90134428D01*
X111293714Y-90098714D01*
X111365143Y-90063000D01*
X111508000Y-90027285D01*
X111686571Y-90027285D01*
X111829429Y-90063000D01*
X111900857Y-90098714D01*
X111936571Y-90134428D01*
X111972286Y-90205857D01*
X111972286Y-90277285D01*
X111936571Y-90348714D01*
X111900857Y-90384428D01*
X111829429Y-90420143D01*
X111686571Y-90455857D01*
X111508000Y-90455857D01*
X111365143Y-90420143D01*
X111293714Y-90384428D01*
X111258000Y-90348714D01*
X111222286Y-90277285D01*
X111222286Y-89562999D02*
X111222286Y-89491571D01*
X111258000Y-89420142D01*
X111293714Y-89384428D01*
X111365143Y-89348714D01*
X111508000Y-89312999D01*
X111686571Y-89312999D01*
X111829429Y-89348714D01*
X111900857Y-89384428D01*
X111936571Y-89420142D01*
X111972286Y-89491571D01*
X111972286Y-89562999D01*
X111936571Y-89634428D01*
X111900857Y-89670142D01*
X111829429Y-89705857D01*
X111686571Y-89741571D01*
X111508000Y-89741571D01*
X111365143Y-89705857D01*
X111293714Y-89670142D01*
X111258000Y-89634428D01*
X111222286Y-89562999D01*
X111972286Y-88991571D02*
X111222286Y-88991571D01*
X111972286Y-88562999D02*
X111543714Y-88884428D01*
X111222286Y-88562999D02*
X111650857Y-88991571D01*
X138064857Y-97153000D02*
X138422000Y-97153000D01*
X137993429Y-97367286D02*
X138243429Y-96617286D01*
X138493429Y-97367286D01*
X138743428Y-97367286D02*
X138743428Y-96617286D01*
X138922000Y-96617286D01*
X139029143Y-96653000D01*
X139100571Y-96724429D01*
X139136286Y-96795857D01*
X139172000Y-96938714D01*
X139172000Y-97045857D01*
X139136286Y-97188714D01*
X139100571Y-97260143D01*
X139029143Y-97331571D01*
X138922000Y-97367286D01*
X138743428Y-97367286D01*
X139457714Y-97153000D02*
X139814857Y-97153000D01*
X139386286Y-97367286D02*
X139636286Y-96617286D01*
X139886286Y-97367286D01*
X140386285Y-96974429D02*
X140136285Y-96974429D01*
X140136285Y-97367286D02*
X140136285Y-96617286D01*
X140493428Y-96617286D01*
X141207714Y-97367286D02*
X140957714Y-97010143D01*
X140779142Y-97367286D02*
X140779142Y-96617286D01*
X141064857Y-96617286D01*
X141136285Y-96653000D01*
X141172000Y-96688714D01*
X141207714Y-96760143D01*
X141207714Y-96867286D01*
X141172000Y-96938714D01*
X141136285Y-96974429D01*
X141064857Y-97010143D01*
X140779142Y-97010143D01*
X141529142Y-96617286D02*
X141529142Y-97224429D01*
X141564857Y-97295857D01*
X141600571Y-97331571D01*
X141672000Y-97367286D01*
X141814857Y-97367286D01*
X141886285Y-97331571D01*
X141922000Y-97295857D01*
X141957714Y-97224429D01*
X141957714Y-96617286D01*
X142314856Y-97367286D02*
X142314856Y-96617286D01*
X142564857Y-96617286D02*
X142993428Y-96617286D01*
X142779142Y-97367286D02*
X142779142Y-96617286D01*
X140640571Y-94319286D02*
X140640571Y-93569286D01*
X140926286Y-93569286D01*
X140997714Y-93605000D01*
X141033429Y-93640714D01*
X141069143Y-93712143D01*
X141069143Y-93819286D01*
X141033429Y-93890714D01*
X140997714Y-93926429D01*
X140926286Y-93962143D01*
X140640571Y-93962143D01*
X141533429Y-93569286D02*
X141676286Y-93569286D01*
X141747714Y-93605000D01*
X141819143Y-93676429D01*
X141854857Y-93819286D01*
X141854857Y-94069286D01*
X141819143Y-94212143D01*
X141747714Y-94283571D01*
X141676286Y-94319286D01*
X141533429Y-94319286D01*
X141462000Y-94283571D01*
X141390571Y-94212143D01*
X141354857Y-94069286D01*
X141354857Y-93819286D01*
X141390571Y-93676429D01*
X141462000Y-93605000D01*
X141533429Y-93569286D01*
X142533428Y-94319286D02*
X142176285Y-94319286D01*
X142176285Y-93569286D01*
X142926286Y-93569286D02*
X143069143Y-93569286D01*
X143140571Y-93605000D01*
X143212000Y-93676429D01*
X143247714Y-93819286D01*
X143247714Y-94069286D01*
X143212000Y-94212143D01*
X143140571Y-94283571D01*
X143069143Y-94319286D01*
X142926286Y-94319286D01*
X142854857Y-94283571D01*
X142783428Y-94212143D01*
X142747714Y-94069286D01*
X142747714Y-93819286D01*
X142783428Y-93676429D01*
X142854857Y-93605000D01*
X142926286Y-93569286D01*
X143926285Y-94319286D02*
X143569142Y-94319286D01*
X143569142Y-93569286D01*
X144176285Y-93569286D02*
X144176285Y-94176429D01*
X144212000Y-94247857D01*
X144247714Y-94283571D01*
X144319143Y-94319286D01*
X144462000Y-94319286D01*
X144533428Y-94283571D01*
X144569143Y-94247857D01*
X144604857Y-94176429D01*
X144604857Y-93569286D01*
X133020571Y-90751429D02*
X133270571Y-90751429D01*
X133377714Y-91144286D02*
X133020571Y-91144286D01*
X133020571Y-90394286D01*
X133377714Y-90394286D01*
X133949142Y-90751429D02*
X134056285Y-90787143D01*
X134092000Y-90822857D01*
X134127714Y-90894286D01*
X134127714Y-91001429D01*
X134092000Y-91072857D01*
X134056285Y-91108571D01*
X133984857Y-91144286D01*
X133699142Y-91144286D01*
X133699142Y-90394286D01*
X133949142Y-90394286D01*
X134020571Y-90430000D01*
X134056285Y-90465714D01*
X134092000Y-90537143D01*
X134092000Y-90608571D01*
X134056285Y-90680000D01*
X134020571Y-90715714D01*
X133949142Y-90751429D01*
X133699142Y-90751429D01*
X134413428Y-90930000D02*
X134770571Y-90930000D01*
X134342000Y-91144286D02*
X134592000Y-90394286D01*
X134842000Y-91144286D01*
X135234857Y-90787143D02*
X135234857Y-91144286D01*
X134984857Y-90394286D02*
X135234857Y-90787143D01*
X135484857Y-90394286D01*
X176164857Y-97280000D02*
X176522000Y-97280000D01*
X176093429Y-97494286D02*
X176343429Y-96744286D01*
X176593429Y-97494286D01*
X176843428Y-97494286D02*
X176843428Y-96744286D01*
X177022000Y-96744286D01*
X177129143Y-96780000D01*
X177200571Y-96851429D01*
X177236286Y-96922857D01*
X177272000Y-97065714D01*
X177272000Y-97172857D01*
X177236286Y-97315714D01*
X177200571Y-97387143D01*
X177129143Y-97458571D01*
X177022000Y-97494286D01*
X176843428Y-97494286D01*
X177557714Y-97280000D02*
X177914857Y-97280000D01*
X177486286Y-97494286D02*
X177736286Y-96744286D01*
X177986286Y-97494286D01*
X178486285Y-97101429D02*
X178236285Y-97101429D01*
X178236285Y-97494286D02*
X178236285Y-96744286D01*
X178593428Y-96744286D01*
X179307714Y-97494286D02*
X179057714Y-97137143D01*
X178879142Y-97494286D02*
X178879142Y-96744286D01*
X179164857Y-96744286D01*
X179236285Y-96780000D01*
X179272000Y-96815714D01*
X179307714Y-96887143D01*
X179307714Y-96994286D01*
X179272000Y-97065714D01*
X179236285Y-97101429D01*
X179164857Y-97137143D01*
X178879142Y-97137143D01*
X179629142Y-96744286D02*
X179629142Y-97351429D01*
X179664857Y-97422857D01*
X179700571Y-97458571D01*
X179772000Y-97494286D01*
X179914857Y-97494286D01*
X179986285Y-97458571D01*
X180022000Y-97422857D01*
X180057714Y-97351429D01*
X180057714Y-96744286D01*
X180414856Y-97494286D02*
X180414856Y-96744286D01*
X180664857Y-96744286D02*
X181093428Y-96744286D01*
X180879142Y-97494286D02*
X180879142Y-96744286D01*
X178613571Y-94319286D02*
X178613571Y-93569286D01*
X178899286Y-93569286D01*
X178970714Y-93605000D01*
X179006429Y-93640714D01*
X179042143Y-93712143D01*
X179042143Y-93819286D01*
X179006429Y-93890714D01*
X178970714Y-93926429D01*
X178899286Y-93962143D01*
X178613571Y-93962143D01*
X179506429Y-93569286D02*
X179649286Y-93569286D01*
X179720714Y-93605000D01*
X179792143Y-93676429D01*
X179827857Y-93819286D01*
X179827857Y-94069286D01*
X179792143Y-94212143D01*
X179720714Y-94283571D01*
X179649286Y-94319286D01*
X179506429Y-94319286D01*
X179435000Y-94283571D01*
X179363571Y-94212143D01*
X179327857Y-94069286D01*
X179327857Y-93819286D01*
X179363571Y-93676429D01*
X179435000Y-93605000D01*
X179506429Y-93569286D01*
X180506428Y-94319286D02*
X180149285Y-94319286D01*
X180149285Y-93569286D01*
X180899286Y-93569286D02*
X181042143Y-93569286D01*
X181113571Y-93605000D01*
X181185000Y-93676429D01*
X181220714Y-93819286D01*
X181220714Y-94069286D01*
X181185000Y-94212143D01*
X181113571Y-94283571D01*
X181042143Y-94319286D01*
X180899286Y-94319286D01*
X180827857Y-94283571D01*
X180756428Y-94212143D01*
X180720714Y-94069286D01*
X180720714Y-93819286D01*
X180756428Y-93676429D01*
X180827857Y-93605000D01*
X180899286Y-93569286D01*
X181899285Y-94319286D02*
X181542142Y-94319286D01*
X181542142Y-93569286D01*
X182149285Y-93569286D02*
X182149285Y-94176429D01*
X182185000Y-94247857D01*
X182220714Y-94283571D01*
X182292143Y-94319286D01*
X182435000Y-94319286D01*
X182506428Y-94283571D01*
X182542143Y-94247857D01*
X182577857Y-94176429D01*
X182577857Y-93569286D01*
X171120571Y-90751429D02*
X171370571Y-90751429D01*
X171477714Y-91144286D02*
X171120571Y-91144286D01*
X171120571Y-90394286D01*
X171477714Y-90394286D01*
X172049142Y-90751429D02*
X172156285Y-90787143D01*
X172192000Y-90822857D01*
X172227714Y-90894286D01*
X172227714Y-91001429D01*
X172192000Y-91072857D01*
X172156285Y-91108571D01*
X172084857Y-91144286D01*
X171799142Y-91144286D01*
X171799142Y-90394286D01*
X172049142Y-90394286D01*
X172120571Y-90430000D01*
X172156285Y-90465714D01*
X172192000Y-90537143D01*
X172192000Y-90608571D01*
X172156285Y-90680000D01*
X172120571Y-90715714D01*
X172049142Y-90751429D01*
X171799142Y-90751429D01*
X172513428Y-90930000D02*
X172870571Y-90930000D01*
X172442000Y-91144286D02*
X172692000Y-90394286D01*
X172942000Y-91144286D01*
X173334857Y-90787143D02*
X173334857Y-91144286D01*
X173084857Y-90394286D02*
X173334857Y-90787143D01*
X173584857Y-90394286D01*
X184652143Y-121334571D02*
X184759286Y-121370286D01*
X184937857Y-121370286D01*
X185009286Y-121334571D01*
X185045000Y-121298857D01*
X185080715Y-121227429D01*
X185080715Y-121156000D01*
X185045000Y-121084571D01*
X185009286Y-121048857D01*
X184937857Y-121013143D01*
X184795000Y-120977429D01*
X184723572Y-120941714D01*
X184687857Y-120906000D01*
X184652143Y-120834571D01*
X184652143Y-120763143D01*
X184687857Y-120691714D01*
X184723572Y-120656000D01*
X184795000Y-120620286D01*
X184973572Y-120620286D01*
X185080715Y-120656000D01*
X185402143Y-121370286D02*
X185402143Y-120620286D01*
X185687858Y-120620286D01*
X185759286Y-120656000D01*
X185795001Y-120691714D01*
X185830715Y-120763143D01*
X185830715Y-120870286D01*
X185795001Y-120941714D01*
X185759286Y-120977429D01*
X185687858Y-121013143D01*
X185402143Y-121013143D01*
X186152143Y-121370286D02*
X186152143Y-120620286D01*
X180709428Y-119048571D02*
X180816571Y-119084286D01*
X180995142Y-119084286D01*
X181066571Y-119048571D01*
X181102285Y-119012857D01*
X181138000Y-118941429D01*
X181138000Y-118870000D01*
X181102285Y-118798571D01*
X181066571Y-118762857D01*
X180995142Y-118727143D01*
X180852285Y-118691429D01*
X180780857Y-118655714D01*
X180745142Y-118620000D01*
X180709428Y-118548571D01*
X180709428Y-118477143D01*
X180745142Y-118405714D01*
X180780857Y-118370000D01*
X180852285Y-118334286D01*
X181030857Y-118334286D01*
X181138000Y-118370000D01*
X181888000Y-119012857D02*
X181852286Y-119048571D01*
X181745143Y-119084286D01*
X181673714Y-119084286D01*
X181566571Y-119048571D01*
X181495143Y-118977143D01*
X181459428Y-118905714D01*
X181423714Y-118762857D01*
X181423714Y-118655714D01*
X181459428Y-118512857D01*
X181495143Y-118441429D01*
X181566571Y-118370000D01*
X181673714Y-118334286D01*
X181745143Y-118334286D01*
X181852286Y-118370000D01*
X181888000Y-118405714D01*
X182566571Y-119084286D02*
X182209428Y-119084286D01*
X182209428Y-118334286D01*
X182816571Y-119084286D02*
X182816571Y-118334286D01*
X183245143Y-119084286D02*
X182923714Y-118655714D01*
X183245143Y-118334286D02*
X182816571Y-118762857D01*
X180852285Y-116544286D02*
X180852285Y-115794286D01*
X181102285Y-116330000D01*
X181352285Y-115794286D01*
X181352285Y-116544286D01*
X181852286Y-115794286D02*
X181995143Y-115794286D01*
X182066571Y-115830000D01*
X182138000Y-115901429D01*
X182173714Y-116044286D01*
X182173714Y-116294286D01*
X182138000Y-116437143D01*
X182066571Y-116508571D01*
X181995143Y-116544286D01*
X181852286Y-116544286D01*
X181780857Y-116508571D01*
X181709428Y-116437143D01*
X181673714Y-116294286D01*
X181673714Y-116044286D01*
X181709428Y-115901429D01*
X181780857Y-115830000D01*
X181852286Y-115794286D01*
X182459428Y-116508571D02*
X182566571Y-116544286D01*
X182745142Y-116544286D01*
X182816571Y-116508571D01*
X182852285Y-116472857D01*
X182888000Y-116401429D01*
X182888000Y-116330000D01*
X182852285Y-116258571D01*
X182816571Y-116222857D01*
X182745142Y-116187143D01*
X182602285Y-116151429D01*
X182530857Y-116115714D01*
X182495142Y-116080000D01*
X182459428Y-116008571D01*
X182459428Y-115937143D01*
X182495142Y-115865714D01*
X182530857Y-115830000D01*
X182602285Y-115794286D01*
X182780857Y-115794286D01*
X182888000Y-115830000D01*
X183209428Y-116544286D02*
X183209428Y-115794286D01*
X180852285Y-114004286D02*
X180852285Y-113254286D01*
X181102285Y-113790000D01*
X181352285Y-113254286D01*
X181352285Y-114004286D01*
X181709428Y-114004286D02*
X181709428Y-113254286D01*
X182030857Y-113968571D02*
X182138000Y-114004286D01*
X182316571Y-114004286D01*
X182388000Y-113968571D01*
X182423714Y-113932857D01*
X182459429Y-113861429D01*
X182459429Y-113790000D01*
X182423714Y-113718571D01*
X182388000Y-113682857D01*
X182316571Y-113647143D01*
X182173714Y-113611429D01*
X182102286Y-113575714D01*
X182066571Y-113540000D01*
X182030857Y-113468571D01*
X182030857Y-113397143D01*
X182066571Y-113325714D01*
X182102286Y-113290000D01*
X182173714Y-113254286D01*
X182352286Y-113254286D01*
X182459429Y-113290000D01*
X182923715Y-113254286D02*
X183066572Y-113254286D01*
X183138000Y-113290000D01*
X183209429Y-113361429D01*
X183245143Y-113504286D01*
X183245143Y-113754286D01*
X183209429Y-113897143D01*
X183138000Y-113968571D01*
X183066572Y-114004286D01*
X182923715Y-114004286D01*
X182852286Y-113968571D01*
X182780857Y-113897143D01*
X182745143Y-113754286D01*
X182745143Y-113504286D01*
X182780857Y-113361429D01*
X182852286Y-113290000D01*
X182923715Y-113254286D01*
X181816571Y-111392857D02*
X181780857Y-111428571D01*
X181673714Y-111464286D01*
X181602285Y-111464286D01*
X181495142Y-111428571D01*
X181423714Y-111357143D01*
X181387999Y-111285714D01*
X181352285Y-111142857D01*
X181352285Y-111035714D01*
X181387999Y-110892857D01*
X181423714Y-110821429D01*
X181495142Y-110750000D01*
X181602285Y-110714286D01*
X181673714Y-110714286D01*
X181780857Y-110750000D01*
X181816571Y-110785714D01*
X182102285Y-111428571D02*
X182209428Y-111464286D01*
X182387999Y-111464286D01*
X182459428Y-111428571D01*
X182495142Y-111392857D01*
X182530857Y-111321429D01*
X182530857Y-111250000D01*
X182495142Y-111178571D01*
X182459428Y-111142857D01*
X182387999Y-111107143D01*
X182245142Y-111071429D01*
X182173714Y-111035714D01*
X182137999Y-111000000D01*
X182102285Y-110928571D01*
X182102285Y-110857143D01*
X182137999Y-110785714D01*
X182173714Y-110750000D01*
X182245142Y-110714286D01*
X182423714Y-110714286D01*
X182530857Y-110750000D01*
X182995143Y-110714286D02*
X183066571Y-110714286D01*
X183138000Y-110750000D01*
X183173714Y-110785714D01*
X183209428Y-110857143D01*
X183245143Y-111000000D01*
X183245143Y-111178571D01*
X183209428Y-111321429D01*
X183173714Y-111392857D01*
X183138000Y-111428571D01*
X183066571Y-111464286D01*
X182995143Y-111464286D01*
X182923714Y-111428571D01*
X182888000Y-111392857D01*
X182852285Y-111321429D01*
X182816571Y-111178571D01*
X182816571Y-111000000D01*
X182852285Y-110857143D01*
X182888000Y-110785714D01*
X182923714Y-110750000D01*
X182995143Y-110714286D01*
X181816571Y-108852857D02*
X181780857Y-108888571D01*
X181673714Y-108924286D01*
X181602285Y-108924286D01*
X181495142Y-108888571D01*
X181423714Y-108817143D01*
X181387999Y-108745714D01*
X181352285Y-108602857D01*
X181352285Y-108495714D01*
X181387999Y-108352857D01*
X181423714Y-108281429D01*
X181495142Y-108210000D01*
X181602285Y-108174286D01*
X181673714Y-108174286D01*
X181780857Y-108210000D01*
X181816571Y-108245714D01*
X182102285Y-108888571D02*
X182209428Y-108924286D01*
X182387999Y-108924286D01*
X182459428Y-108888571D01*
X182495142Y-108852857D01*
X182530857Y-108781429D01*
X182530857Y-108710000D01*
X182495142Y-108638571D01*
X182459428Y-108602857D01*
X182387999Y-108567143D01*
X182245142Y-108531429D01*
X182173714Y-108495714D01*
X182137999Y-108460000D01*
X182102285Y-108388571D01*
X182102285Y-108317143D01*
X182137999Y-108245714D01*
X182173714Y-108210000D01*
X182245142Y-108174286D01*
X182423714Y-108174286D01*
X182530857Y-108210000D01*
X183245143Y-108924286D02*
X182816571Y-108924286D01*
X183030857Y-108924286D02*
X183030857Y-108174286D01*
X182959428Y-108281429D01*
X182888000Y-108352857D01*
X182816571Y-108388571D01*
X181816571Y-106312857D02*
X181780857Y-106348571D01*
X181673714Y-106384286D01*
X181602285Y-106384286D01*
X181495142Y-106348571D01*
X181423714Y-106277143D01*
X181387999Y-106205714D01*
X181352285Y-106062857D01*
X181352285Y-105955714D01*
X181387999Y-105812857D01*
X181423714Y-105741429D01*
X181495142Y-105670000D01*
X181602285Y-105634286D01*
X181673714Y-105634286D01*
X181780857Y-105670000D01*
X181816571Y-105705714D01*
X182102285Y-106348571D02*
X182209428Y-106384286D01*
X182387999Y-106384286D01*
X182459428Y-106348571D01*
X182495142Y-106312857D01*
X182530857Y-106241429D01*
X182530857Y-106170000D01*
X182495142Y-106098571D01*
X182459428Y-106062857D01*
X182387999Y-106027143D01*
X182245142Y-105991429D01*
X182173714Y-105955714D01*
X182137999Y-105920000D01*
X182102285Y-105848571D01*
X182102285Y-105777143D01*
X182137999Y-105705714D01*
X182173714Y-105670000D01*
X182245142Y-105634286D01*
X182423714Y-105634286D01*
X182530857Y-105670000D01*
X182816571Y-105705714D02*
X182852285Y-105670000D01*
X182923714Y-105634286D01*
X183102285Y-105634286D01*
X183173714Y-105670000D01*
X183209428Y-105705714D01*
X183245143Y-105777143D01*
X183245143Y-105848571D01*
X183209428Y-105955714D01*
X182780857Y-106384286D01*
X183245143Y-106384286D01*
X181816571Y-103772857D02*
X181780857Y-103808571D01*
X181673714Y-103844286D01*
X181602285Y-103844286D01*
X181495142Y-103808571D01*
X181423714Y-103737143D01*
X181387999Y-103665714D01*
X181352285Y-103522857D01*
X181352285Y-103415714D01*
X181387999Y-103272857D01*
X181423714Y-103201429D01*
X181495142Y-103130000D01*
X181602285Y-103094286D01*
X181673714Y-103094286D01*
X181780857Y-103130000D01*
X181816571Y-103165714D01*
X182102285Y-103808571D02*
X182209428Y-103844286D01*
X182387999Y-103844286D01*
X182459428Y-103808571D01*
X182495142Y-103772857D01*
X182530857Y-103701429D01*
X182530857Y-103630000D01*
X182495142Y-103558571D01*
X182459428Y-103522857D01*
X182387999Y-103487143D01*
X182245142Y-103451429D01*
X182173714Y-103415714D01*
X182137999Y-103380000D01*
X182102285Y-103308571D01*
X182102285Y-103237143D01*
X182137999Y-103165714D01*
X182173714Y-103130000D01*
X182245142Y-103094286D01*
X182423714Y-103094286D01*
X182530857Y-103130000D01*
X182780857Y-103094286D02*
X183245143Y-103094286D01*
X182995143Y-103380000D01*
X183102285Y-103380000D01*
X183173714Y-103415714D01*
X183209428Y-103451429D01*
X183245143Y-103522857D01*
X183245143Y-103701429D01*
X183209428Y-103772857D01*
X183173714Y-103808571D01*
X183102285Y-103844286D01*
X182888000Y-103844286D01*
X182816571Y-103808571D01*
X182780857Y-103772857D01*
X181530858Y-100554286D02*
X181780858Y-101304286D01*
X182030858Y-100554286D01*
X182602286Y-101268571D02*
X182530857Y-101304286D01*
X182388000Y-101304286D01*
X182316572Y-101268571D01*
X182280857Y-101232857D01*
X182245143Y-101161429D01*
X182245143Y-100947143D01*
X182280857Y-100875714D01*
X182316572Y-100840000D01*
X182388000Y-100804286D01*
X182530857Y-100804286D01*
X182602286Y-100840000D01*
X183245143Y-101268571D02*
X183173714Y-101304286D01*
X183030857Y-101304286D01*
X182959429Y-101268571D01*
X182923714Y-101232857D01*
X182888000Y-101161429D01*
X182888000Y-100947143D01*
X182923714Y-100875714D01*
X182959429Y-100840000D01*
X183030857Y-100804286D01*
X183173714Y-100804286D01*
X183245143Y-100840000D01*
X181673715Y-98050000D02*
X181602286Y-98014286D01*
X181495143Y-98014286D01*
X181388000Y-98050000D01*
X181316572Y-98121429D01*
X181280857Y-98192857D01*
X181245143Y-98335714D01*
X181245143Y-98442857D01*
X181280857Y-98585714D01*
X181316572Y-98657143D01*
X181388000Y-98728571D01*
X181495143Y-98764286D01*
X181566572Y-98764286D01*
X181673715Y-98728571D01*
X181709429Y-98692857D01*
X181709429Y-98442857D01*
X181566572Y-98442857D01*
X182030857Y-98764286D02*
X182030857Y-98014286D01*
X182459429Y-98764286D01*
X182459429Y-98014286D01*
X182816571Y-98764286D02*
X182816571Y-98014286D01*
X182995143Y-98014286D01*
X183102286Y-98050000D01*
X183173714Y-98121429D01*
X183209429Y-98192857D01*
X183245143Y-98335714D01*
X183245143Y-98442857D01*
X183209429Y-98585714D01*
X183173714Y-98657143D01*
X183102286Y-98728571D01*
X182995143Y-98764286D01*
X182816571Y-98764286D01*
X175450429Y-107400286D02*
X175021857Y-107400286D01*
X175236143Y-107400286D02*
X175236143Y-106650286D01*
X175164714Y-106757429D01*
X175093286Y-106828857D01*
X175021857Y-106864571D01*
X175914715Y-106650286D02*
X175986143Y-106650286D01*
X176057572Y-106686000D01*
X176093286Y-106721714D01*
X176129000Y-106793143D01*
X176164715Y-106936000D01*
X176164715Y-107114571D01*
X176129000Y-107257429D01*
X176093286Y-107328857D01*
X176057572Y-107364571D01*
X175986143Y-107400286D01*
X175914715Y-107400286D01*
X175843286Y-107364571D01*
X175807572Y-107328857D01*
X175771857Y-107257429D01*
X175736143Y-107114571D01*
X175736143Y-106936000D01*
X175771857Y-106793143D01*
X175807572Y-106721714D01*
X175843286Y-106686000D01*
X175914715Y-106650286D01*
X176629001Y-106650286D02*
X176700429Y-106650286D01*
X176771858Y-106686000D01*
X176807572Y-106721714D01*
X176843286Y-106793143D01*
X176879001Y-106936000D01*
X176879001Y-107114571D01*
X176843286Y-107257429D01*
X176807572Y-107328857D01*
X176771858Y-107364571D01*
X176700429Y-107400286D01*
X176629001Y-107400286D01*
X176557572Y-107364571D01*
X176521858Y-107328857D01*
X176486143Y-107257429D01*
X176450429Y-107114571D01*
X176450429Y-106936000D01*
X176486143Y-106793143D01*
X176521858Y-106721714D01*
X176557572Y-106686000D01*
X176629001Y-106650286D01*
X177200429Y-107400286D02*
X177200429Y-106650286D01*
X177629001Y-107400286D02*
X177307572Y-106971714D01*
X177629001Y-106650286D02*
X177200429Y-107078857D01*
X158212286Y-112565144D02*
X158212286Y-112136573D01*
X158962286Y-112350859D02*
X158212286Y-112350859D01*
X158962286Y-111886573D02*
X158212286Y-111886573D01*
X158212286Y-111600858D01*
X158248000Y-111529430D01*
X158283714Y-111493715D01*
X158355143Y-111458001D01*
X158462286Y-111458001D01*
X158533714Y-111493715D01*
X158569429Y-111529430D01*
X158605143Y-111600858D01*
X158605143Y-111886573D01*
X158212286Y-111208001D02*
X158212286Y-110743715D01*
X158498000Y-110993715D01*
X158498000Y-110886573D01*
X158533714Y-110815144D01*
X158569429Y-110779430D01*
X158640857Y-110743715D01*
X158819429Y-110743715D01*
X158890857Y-110779430D01*
X158926571Y-110815144D01*
X158962286Y-110886573D01*
X158962286Y-111100858D01*
X158926571Y-111172287D01*
X158890857Y-111208001D01*
X158462286Y-110100858D02*
X158962286Y-110100858D01*
X158176571Y-110279429D02*
X158712286Y-110458001D01*
X158712286Y-109993715D01*
X158212286Y-109386572D02*
X158212286Y-109529429D01*
X158248000Y-109600858D01*
X158283714Y-109636572D01*
X158390857Y-109708001D01*
X158533714Y-109743715D01*
X158819429Y-109743715D01*
X158890857Y-109708001D01*
X158926571Y-109672286D01*
X158962286Y-109600858D01*
X158962286Y-109458001D01*
X158926571Y-109386572D01*
X158890857Y-109350858D01*
X158819429Y-109315143D01*
X158640857Y-109315143D01*
X158569429Y-109350858D01*
X158533714Y-109386572D01*
X158498000Y-109458001D01*
X158498000Y-109600858D01*
X158533714Y-109672286D01*
X158569429Y-109708001D01*
X158640857Y-109743715D01*
X158212286Y-108636572D02*
X158212286Y-108993715D01*
X158569429Y-109029429D01*
X158533714Y-108993715D01*
X158498000Y-108922286D01*
X158498000Y-108743715D01*
X158533714Y-108672286D01*
X158569429Y-108636572D01*
X158640857Y-108600857D01*
X158819429Y-108600857D01*
X158890857Y-108636572D01*
X158926571Y-108672286D01*
X158962286Y-108743715D01*
X158962286Y-108922286D01*
X158926571Y-108993715D01*
X158890857Y-109029429D01*
X158212286Y-126440429D02*
X158819429Y-126440429D01*
X158890857Y-126404714D01*
X158926571Y-126369000D01*
X158962286Y-126297571D01*
X158962286Y-126154714D01*
X158926571Y-126083286D01*
X158890857Y-126047571D01*
X158819429Y-126011857D01*
X158212286Y-126011857D01*
X158962286Y-125261857D02*
X158962286Y-125690429D01*
X158962286Y-125476143D02*
X158212286Y-125476143D01*
X158319429Y-125547572D01*
X158390857Y-125619000D01*
X158426571Y-125690429D01*
X125222286Y-117052286D02*
X124793714Y-117052286D01*
X125008000Y-117052286D02*
X125008000Y-116302286D01*
X124936571Y-116409429D01*
X124865143Y-116480857D01*
X124793714Y-116516571D01*
X125686572Y-116302286D02*
X125758000Y-116302286D01*
X125829429Y-116338000D01*
X125865143Y-116373714D01*
X125900857Y-116445143D01*
X125936572Y-116588000D01*
X125936572Y-116766571D01*
X125900857Y-116909429D01*
X125865143Y-116980857D01*
X125829429Y-117016571D01*
X125758000Y-117052286D01*
X125686572Y-117052286D01*
X125615143Y-117016571D01*
X125579429Y-116980857D01*
X125543714Y-116909429D01*
X125508000Y-116766571D01*
X125508000Y-116588000D01*
X125543714Y-116445143D01*
X125579429Y-116373714D01*
X125615143Y-116338000D01*
X125686572Y-116302286D01*
X126258000Y-116552286D02*
X126258000Y-117302286D01*
X126615143Y-116945143D02*
X126650858Y-117016571D01*
X126722286Y-117052286D01*
X126258000Y-116945143D02*
X126293715Y-117016571D01*
X126365143Y-117052286D01*
X126508000Y-117052286D01*
X126579429Y-117016571D01*
X126615143Y-116945143D01*
X126615143Y-116552286D01*
X127293714Y-116659429D02*
X127043714Y-116659429D01*
X127043714Y-117052286D02*
X127043714Y-116302286D01*
X127400857Y-116302286D01*
X138134286Y-120494857D02*
X138134286Y-120923429D01*
X138134286Y-120709143D02*
X137384286Y-120709143D01*
X137491429Y-120780572D01*
X137562857Y-120852000D01*
X137598571Y-120923429D01*
X137384286Y-120030571D02*
X137384286Y-119959143D01*
X137420000Y-119887714D01*
X137455714Y-119852000D01*
X137527143Y-119816286D01*
X137670000Y-119780571D01*
X137848571Y-119780571D01*
X137991429Y-119816286D01*
X138062857Y-119852000D01*
X138098571Y-119887714D01*
X138134286Y-119959143D01*
X138134286Y-120030571D01*
X138098571Y-120102000D01*
X138062857Y-120137714D01*
X137991429Y-120173429D01*
X137848571Y-120209143D01*
X137670000Y-120209143D01*
X137527143Y-120173429D01*
X137455714Y-120137714D01*
X137420000Y-120102000D01*
X137384286Y-120030571D01*
X137384286Y-119316285D02*
X137384286Y-119244857D01*
X137420000Y-119173428D01*
X137455714Y-119137714D01*
X137527143Y-119102000D01*
X137670000Y-119066285D01*
X137848571Y-119066285D01*
X137991429Y-119102000D01*
X138062857Y-119137714D01*
X138098571Y-119173428D01*
X138134286Y-119244857D01*
X138134286Y-119316285D01*
X138098571Y-119387714D01*
X138062857Y-119423428D01*
X137991429Y-119459143D01*
X137848571Y-119494857D01*
X137670000Y-119494857D01*
X137527143Y-119459143D01*
X137455714Y-119423428D01*
X137420000Y-119387714D01*
X137384286Y-119316285D01*
X137634286Y-118744857D02*
X138134286Y-118744857D01*
X137705714Y-118744857D02*
X137670000Y-118709142D01*
X137634286Y-118637714D01*
X137634286Y-118530571D01*
X137670000Y-118459142D01*
X137741429Y-118423428D01*
X138134286Y-118423428D01*
X137741429Y-117816286D02*
X137741429Y-118066286D01*
X138134286Y-118066286D02*
X137384286Y-118066286D01*
X137384286Y-117709143D01*
X135445429Y-134324286D02*
X135016857Y-134324286D01*
X135231143Y-134324286D02*
X135231143Y-133574286D01*
X135159714Y-133681429D01*
X135088286Y-133752857D01*
X135016857Y-133788571D01*
X135909715Y-133574286D02*
X135981143Y-133574286D01*
X136052572Y-133610000D01*
X136088286Y-133645714D01*
X136124000Y-133717143D01*
X136159715Y-133860000D01*
X136159715Y-134038571D01*
X136124000Y-134181429D01*
X136088286Y-134252857D01*
X136052572Y-134288571D01*
X135981143Y-134324286D01*
X135909715Y-134324286D01*
X135838286Y-134288571D01*
X135802572Y-134252857D01*
X135766857Y-134181429D01*
X135731143Y-134038571D01*
X135731143Y-133860000D01*
X135766857Y-133717143D01*
X135802572Y-133645714D01*
X135838286Y-133610000D01*
X135909715Y-133574286D01*
X136624001Y-133574286D02*
X136695429Y-133574286D01*
X136766858Y-133610000D01*
X136802572Y-133645714D01*
X136838286Y-133717143D01*
X136874001Y-133860000D01*
X136874001Y-134038571D01*
X136838286Y-134181429D01*
X136802572Y-134252857D01*
X136766858Y-134288571D01*
X136695429Y-134324286D01*
X136624001Y-134324286D01*
X136552572Y-134288571D01*
X136516858Y-134252857D01*
X136481143Y-134181429D01*
X136445429Y-134038571D01*
X136445429Y-133860000D01*
X136481143Y-133717143D01*
X136516858Y-133645714D01*
X136552572Y-133610000D01*
X136624001Y-133574286D01*
X137195429Y-133824286D02*
X137195429Y-134324286D01*
X137195429Y-133895714D02*
X137231144Y-133860000D01*
X137302572Y-133824286D01*
X137409715Y-133824286D01*
X137481144Y-133860000D01*
X137516858Y-133931429D01*
X137516858Y-134324286D01*
X138124000Y-133931429D02*
X137874000Y-133931429D01*
X137874000Y-134324286D02*
X137874000Y-133574286D01*
X138231143Y-133574286D01*
X123219714Y-126000570D02*
X123219714Y-126500570D01*
X122469714Y-126179141D01*
X122969714Y-127107713D02*
X122469714Y-127107713D01*
X123255429Y-126929142D02*
X122719714Y-126750570D01*
X122719714Y-127214856D01*
X122469714Y-127500570D02*
X123219714Y-127500570D01*
X122862571Y-127500570D02*
X122862571Y-127929142D01*
X122469714Y-127929142D02*
X123219714Y-127929142D01*
X122541143Y-128714856D02*
X122505429Y-128679142D01*
X122469714Y-128571999D01*
X122469714Y-128500570D01*
X122505429Y-128393427D01*
X122576857Y-128321999D01*
X122648286Y-128286284D01*
X122791143Y-128250570D01*
X122898286Y-128250570D01*
X123041143Y-128286284D01*
X123112571Y-128321999D01*
X123184000Y-128393427D01*
X123219714Y-128500570D01*
X123219714Y-128571999D01*
X123184000Y-128679142D01*
X123148286Y-128714856D01*
X123219714Y-128929142D02*
X123219714Y-129357713D01*
X122469714Y-129143427D02*
X123219714Y-129143427D01*
X123219714Y-129929142D02*
X123219714Y-129786285D01*
X123184000Y-129714856D01*
X123148286Y-129679142D01*
X123041143Y-129607713D01*
X122898286Y-129571999D01*
X122612571Y-129571999D01*
X122541143Y-129607713D01*
X122505429Y-129643428D01*
X122469714Y-129714856D01*
X122469714Y-129857713D01*
X122505429Y-129929142D01*
X122541143Y-129964856D01*
X122612571Y-130000571D01*
X122791143Y-130000571D01*
X122862571Y-129964856D01*
X122898286Y-129929142D01*
X122934000Y-129857713D01*
X122934000Y-129714856D01*
X122898286Y-129643428D01*
X122862571Y-129607713D01*
X122791143Y-129571999D01*
X122898286Y-130429142D02*
X122934000Y-130357714D01*
X122969714Y-130321999D01*
X123041143Y-130286285D01*
X123076857Y-130286285D01*
X123148286Y-130321999D01*
X123184000Y-130357714D01*
X123219714Y-130429142D01*
X123219714Y-130571999D01*
X123184000Y-130643428D01*
X123148286Y-130679142D01*
X123076857Y-130714857D01*
X123041143Y-130714857D01*
X122969714Y-130679142D01*
X122934000Y-130643428D01*
X122898286Y-130571999D01*
X122898286Y-130429142D01*
X122862571Y-130357714D01*
X122826857Y-130321999D01*
X122755429Y-130286285D01*
X122612571Y-130286285D01*
X122541143Y-130321999D01*
X122505429Y-130357714D01*
X122469714Y-130429142D01*
X122469714Y-130571999D01*
X122505429Y-130643428D01*
X122541143Y-130679142D01*
X122612571Y-130714857D01*
X122755429Y-130714857D01*
X122826857Y-130679142D01*
X122862571Y-130643428D01*
X122898286Y-130571999D01*
X122898286Y-131143428D02*
X122934000Y-131072000D01*
X122969714Y-131036285D01*
X123041143Y-131000571D01*
X123076857Y-131000571D01*
X123148286Y-131036285D01*
X123184000Y-131072000D01*
X123219714Y-131143428D01*
X123219714Y-131286285D01*
X123184000Y-131357714D01*
X123148286Y-131393428D01*
X123076857Y-131429143D01*
X123041143Y-131429143D01*
X122969714Y-131393428D01*
X122934000Y-131357714D01*
X122898286Y-131286285D01*
X122898286Y-131143428D01*
X122862571Y-131072000D01*
X122826857Y-131036285D01*
X122755429Y-131000571D01*
X122612571Y-131000571D01*
X122541143Y-131036285D01*
X122505429Y-131072000D01*
X122469714Y-131143428D01*
X122469714Y-131286285D01*
X122505429Y-131357714D01*
X122541143Y-131393428D01*
X122612571Y-131429143D01*
X122755429Y-131429143D01*
X122826857Y-131393428D01*
X122862571Y-131357714D01*
X122898286Y-131286285D01*
X123092714Y-105969571D02*
X122485571Y-105969571D01*
X122414143Y-106005286D01*
X122378429Y-106041000D01*
X122342714Y-106112429D01*
X122342714Y-106255286D01*
X122378429Y-106326714D01*
X122414143Y-106362429D01*
X122485571Y-106398143D01*
X123092714Y-106398143D01*
X123021286Y-106719571D02*
X123057000Y-106755285D01*
X123092714Y-106826714D01*
X123092714Y-107005285D01*
X123057000Y-107076714D01*
X123021286Y-107112428D01*
X122949857Y-107148143D01*
X122878429Y-107148143D01*
X122771286Y-107112428D01*
X122342714Y-106683857D01*
X122342714Y-107148143D01*
X122618429Y-105241286D02*
X122189857Y-105241286D01*
X122404143Y-105241286D02*
X122404143Y-104491286D01*
X122332714Y-104598429D01*
X122261286Y-104669857D01*
X122189857Y-104705571D01*
X123082715Y-104491286D02*
X123154143Y-104491286D01*
X123225572Y-104527000D01*
X123261286Y-104562714D01*
X123297000Y-104634143D01*
X123332715Y-104777000D01*
X123332715Y-104955571D01*
X123297000Y-105098429D01*
X123261286Y-105169857D01*
X123225572Y-105205571D01*
X123154143Y-105241286D01*
X123082715Y-105241286D01*
X123011286Y-105205571D01*
X122975572Y-105169857D01*
X122939857Y-105098429D01*
X122904143Y-104955571D01*
X122904143Y-104777000D01*
X122939857Y-104634143D01*
X122975572Y-104562714D01*
X123011286Y-104527000D01*
X123082715Y-104491286D01*
X123797001Y-104491286D02*
X123868429Y-104491286D01*
X123939858Y-104527000D01*
X123975572Y-104562714D01*
X124011286Y-104634143D01*
X124047001Y-104777000D01*
X124047001Y-104955571D01*
X124011286Y-105098429D01*
X123975572Y-105169857D01*
X123939858Y-105205571D01*
X123868429Y-105241286D01*
X123797001Y-105241286D01*
X123725572Y-105205571D01*
X123689858Y-105169857D01*
X123654143Y-105098429D01*
X123618429Y-104955571D01*
X123618429Y-104777000D01*
X123654143Y-104634143D01*
X123689858Y-104562714D01*
X123725572Y-104527000D01*
X123797001Y-104491286D01*
X124368429Y-104741286D02*
X124368429Y-105241286D01*
X124368429Y-104812714D02*
X124404144Y-104777000D01*
X124475572Y-104741286D01*
X124582715Y-104741286D01*
X124654144Y-104777000D01*
X124689858Y-104848429D01*
X124689858Y-105241286D01*
X125297000Y-104848429D02*
X125047000Y-104848429D01*
X125047000Y-105241286D02*
X125047000Y-104491286D01*
X125404143Y-104491286D01*
X110045429Y-122767286D02*
X109616857Y-122767286D01*
X109831143Y-122767286D02*
X109831143Y-122017286D01*
X109759714Y-122124429D01*
X109688286Y-122195857D01*
X109616857Y-122231571D01*
X110509715Y-122017286D02*
X110581143Y-122017286D01*
X110652572Y-122053000D01*
X110688286Y-122088714D01*
X110724000Y-122160143D01*
X110759715Y-122303000D01*
X110759715Y-122481571D01*
X110724000Y-122624429D01*
X110688286Y-122695857D01*
X110652572Y-122731571D01*
X110581143Y-122767286D01*
X110509715Y-122767286D01*
X110438286Y-122731571D01*
X110402572Y-122695857D01*
X110366857Y-122624429D01*
X110331143Y-122481571D01*
X110331143Y-122303000D01*
X110366857Y-122160143D01*
X110402572Y-122088714D01*
X110438286Y-122053000D01*
X110509715Y-122017286D01*
X111081143Y-122767286D02*
X111081143Y-122017286D01*
X111509715Y-122767286D02*
X111188286Y-122338714D01*
X111509715Y-122017286D02*
X111081143Y-122445857D01*
X110045429Y-119592286D02*
X109616857Y-119592286D01*
X109831143Y-119592286D02*
X109831143Y-118842286D01*
X109759714Y-118949429D01*
X109688286Y-119020857D01*
X109616857Y-119056571D01*
X110509715Y-118842286D02*
X110581143Y-118842286D01*
X110652572Y-118878000D01*
X110688286Y-118913714D01*
X110724000Y-118985143D01*
X110759715Y-119128000D01*
X110759715Y-119306571D01*
X110724000Y-119449429D01*
X110688286Y-119520857D01*
X110652572Y-119556571D01*
X110581143Y-119592286D01*
X110509715Y-119592286D01*
X110438286Y-119556571D01*
X110402572Y-119520857D01*
X110366857Y-119449429D01*
X110331143Y-119306571D01*
X110331143Y-119128000D01*
X110366857Y-118985143D01*
X110402572Y-118913714D01*
X110438286Y-118878000D01*
X110509715Y-118842286D01*
X111081143Y-119592286D02*
X111081143Y-118842286D01*
X111509715Y-119592286D02*
X111188286Y-119163714D01*
X111509715Y-118842286D02*
X111081143Y-119270857D01*
X110045429Y-116417286D02*
X109616857Y-116417286D01*
X109831143Y-116417286D02*
X109831143Y-115667286D01*
X109759714Y-115774429D01*
X109688286Y-115845857D01*
X109616857Y-115881571D01*
X110509715Y-115667286D02*
X110581143Y-115667286D01*
X110652572Y-115703000D01*
X110688286Y-115738714D01*
X110724000Y-115810143D01*
X110759715Y-115953000D01*
X110759715Y-116131571D01*
X110724000Y-116274429D01*
X110688286Y-116345857D01*
X110652572Y-116381571D01*
X110581143Y-116417286D01*
X110509715Y-116417286D01*
X110438286Y-116381571D01*
X110402572Y-116345857D01*
X110366857Y-116274429D01*
X110331143Y-116131571D01*
X110331143Y-115953000D01*
X110366857Y-115810143D01*
X110402572Y-115738714D01*
X110438286Y-115703000D01*
X110509715Y-115667286D01*
X111081143Y-116417286D02*
X111081143Y-115667286D01*
X111509715Y-116417286D02*
X111188286Y-115988714D01*
X111509715Y-115667286D02*
X111081143Y-116095857D01*
X110045429Y-113242286D02*
X109616857Y-113242286D01*
X109831143Y-113242286D02*
X109831143Y-112492286D01*
X109759714Y-112599429D01*
X109688286Y-112670857D01*
X109616857Y-112706571D01*
X110509715Y-112492286D02*
X110581143Y-112492286D01*
X110652572Y-112528000D01*
X110688286Y-112563714D01*
X110724000Y-112635143D01*
X110759715Y-112778000D01*
X110759715Y-112956571D01*
X110724000Y-113099429D01*
X110688286Y-113170857D01*
X110652572Y-113206571D01*
X110581143Y-113242286D01*
X110509715Y-113242286D01*
X110438286Y-113206571D01*
X110402572Y-113170857D01*
X110366857Y-113099429D01*
X110331143Y-112956571D01*
X110331143Y-112778000D01*
X110366857Y-112635143D01*
X110402572Y-112563714D01*
X110438286Y-112528000D01*
X110509715Y-112492286D01*
X111081143Y-113242286D02*
X111081143Y-112492286D01*
X111509715Y-113242286D02*
X111188286Y-112813714D01*
X111509715Y-112492286D02*
X111081143Y-112920857D01*
X110045429Y-110067286D02*
X109616857Y-110067286D01*
X109831143Y-110067286D02*
X109831143Y-109317286D01*
X109759714Y-109424429D01*
X109688286Y-109495857D01*
X109616857Y-109531571D01*
X110509715Y-109317286D02*
X110581143Y-109317286D01*
X110652572Y-109353000D01*
X110688286Y-109388714D01*
X110724000Y-109460143D01*
X110759715Y-109603000D01*
X110759715Y-109781571D01*
X110724000Y-109924429D01*
X110688286Y-109995857D01*
X110652572Y-110031571D01*
X110581143Y-110067286D01*
X110509715Y-110067286D01*
X110438286Y-110031571D01*
X110402572Y-109995857D01*
X110366857Y-109924429D01*
X110331143Y-109781571D01*
X110331143Y-109603000D01*
X110366857Y-109460143D01*
X110402572Y-109388714D01*
X110438286Y-109353000D01*
X110509715Y-109317286D01*
X111081143Y-110067286D02*
X111081143Y-109317286D01*
X111509715Y-110067286D02*
X111188286Y-109638714D01*
X111509715Y-109317286D02*
X111081143Y-109745857D01*
D13*
X136040000Y-117375000D02*
X136040000Y-112535000D01*
X138280000Y-117375000D02*
X138280000Y-112535000D01*
X136040000Y-117375000D02*
X138280000Y-117375000D01*
X136040000Y-112535000D02*
X138280000Y-112535000D01*
X121820000Y-105260000D02*
X116980000Y-105260000D01*
X121820000Y-103020000D02*
X116980000Y-103020000D01*
X121820000Y-105260000D02*
X121820000Y-103020000D01*
X116980000Y-105260000D02*
X116980000Y-103020000D01*
X134520000Y-134470000D02*
X129680000Y-134470000D01*
X134520000Y-132230000D02*
X129680000Y-132230000D01*
X134520000Y-134470000D02*
X134520000Y-132230000D01*
X129680000Y-134470000D02*
X129680000Y-132230000D01*
X133065000Y-116205000D02*
G75*
G03X133065000Y-116205000I-2620000J0D01*
G01*
X130445000Y-115165000D02*
X130445000Y-113625000D01*
X130445000Y-118785000D02*
X130445000Y-117245000D01*
X130405000Y-115165000D02*
X130405000Y-113625000D01*
X130405000Y-118785000D02*
X130405000Y-117245000D01*
X130365000Y-118784000D02*
X130365000Y-117245000D01*
X130365000Y-115165000D02*
X130365000Y-113626000D01*
X130325000Y-118783000D02*
X130325000Y-117245000D01*
X130325000Y-115165000D02*
X130325000Y-113627000D01*
X130285000Y-118781000D02*
X130285000Y-117245000D01*
X130285000Y-115165000D02*
X130285000Y-113629000D01*
X130245000Y-118778000D02*
X130245000Y-117245000D01*
X130245000Y-115165000D02*
X130245000Y-113632000D01*
X130205000Y-118774000D02*
X130205000Y-117245000D01*
X130205000Y-115165000D02*
X130205000Y-113636000D01*
X130165000Y-118770000D02*
X130165000Y-117245000D01*
X130165000Y-115165000D02*
X130165000Y-113640000D01*
X130125000Y-118766000D02*
X130125000Y-117245000D01*
X130125000Y-115165000D02*
X130125000Y-113644000D01*
X130085000Y-118761000D02*
X130085000Y-117245000D01*
X130085000Y-115165000D02*
X130085000Y-113649000D01*
X130045000Y-118755000D02*
X130045000Y-117245000D01*
X130045000Y-115165000D02*
X130045000Y-113655000D01*
X130005000Y-118748000D02*
X130005000Y-117245000D01*
X130005000Y-115165000D02*
X130005000Y-113662000D01*
X129965000Y-118741000D02*
X129965000Y-117245000D01*
X129965000Y-115165000D02*
X129965000Y-113669000D01*
X129925000Y-118733000D02*
X129925000Y-117245000D01*
X129925000Y-115165000D02*
X129925000Y-113677000D01*
X129885000Y-118725000D02*
X129885000Y-117245000D01*
X129885000Y-115165000D02*
X129885000Y-113685000D01*
X129845000Y-118716000D02*
X129845000Y-117245000D01*
X129845000Y-115165000D02*
X129845000Y-113694000D01*
X129805000Y-118706000D02*
X129805000Y-117245000D01*
X129805000Y-115165000D02*
X129805000Y-113704000D01*
X129765000Y-118696000D02*
X129765000Y-117245000D01*
X129765000Y-115165000D02*
X129765000Y-113714000D01*
X129724000Y-118685000D02*
X129724000Y-117245000D01*
X129724000Y-115165000D02*
X129724000Y-113725000D01*
X129684000Y-118673000D02*
X129684000Y-117245000D01*
X129684000Y-115165000D02*
X129684000Y-113737000D01*
X129644000Y-118660000D02*
X129644000Y-117245000D01*
X129644000Y-115165000D02*
X129644000Y-113750000D01*
X129604000Y-118647000D02*
X129604000Y-117245000D01*
X129604000Y-115165000D02*
X129604000Y-113763000D01*
X129564000Y-118633000D02*
X129564000Y-117245000D01*
X129564000Y-115165000D02*
X129564000Y-113777000D01*
X129524000Y-118619000D02*
X129524000Y-117245000D01*
X129524000Y-115165000D02*
X129524000Y-113791000D01*
X129484000Y-118603000D02*
X129484000Y-117245000D01*
X129484000Y-115165000D02*
X129484000Y-113807000D01*
X129444000Y-118587000D02*
X129444000Y-117245000D01*
X129444000Y-115165000D02*
X129444000Y-113823000D01*
X129404000Y-118570000D02*
X129404000Y-117245000D01*
X129404000Y-115165000D02*
X129404000Y-113840000D01*
X129364000Y-118553000D02*
X129364000Y-117245000D01*
X129364000Y-115165000D02*
X129364000Y-113857000D01*
X129324000Y-118534000D02*
X129324000Y-117245000D01*
X129324000Y-115165000D02*
X129324000Y-113876000D01*
X129284000Y-118515000D02*
X129284000Y-117245000D01*
X129284000Y-115165000D02*
X129284000Y-113895000D01*
X129244000Y-118495000D02*
X129244000Y-117245000D01*
X129244000Y-115165000D02*
X129244000Y-113915000D01*
X129204000Y-118473000D02*
X129204000Y-117245000D01*
X129204000Y-115165000D02*
X129204000Y-113937000D01*
X129164000Y-118452000D02*
X129164000Y-117245000D01*
X129164000Y-115165000D02*
X129164000Y-113958000D01*
X129124000Y-118429000D02*
X129124000Y-117245000D01*
X129124000Y-115165000D02*
X129124000Y-113981000D01*
X129084000Y-118405000D02*
X129084000Y-117245000D01*
X129084000Y-115165000D02*
X129084000Y-114005000D01*
X129044000Y-118380000D02*
X129044000Y-117245000D01*
X129044000Y-115165000D02*
X129044000Y-114030000D01*
X129004000Y-118354000D02*
X129004000Y-117245000D01*
X129004000Y-115165000D02*
X129004000Y-114056000D01*
X128964000Y-118327000D02*
X128964000Y-117245000D01*
X128964000Y-115165000D02*
X128964000Y-114083000D01*
X128924000Y-118300000D02*
X128924000Y-117245000D01*
X128924000Y-115165000D02*
X128924000Y-114110000D01*
X128884000Y-118270000D02*
X128884000Y-117245000D01*
X128884000Y-115165000D02*
X128884000Y-114140000D01*
X128844000Y-118240000D02*
X128844000Y-117245000D01*
X128844000Y-115165000D02*
X128844000Y-114170000D01*
X128804000Y-118209000D02*
X128804000Y-117245000D01*
X128804000Y-115165000D02*
X128804000Y-114201000D01*
X128764000Y-118176000D02*
X128764000Y-117245000D01*
X128764000Y-115165000D02*
X128764000Y-114234000D01*
X128724000Y-118142000D02*
X128724000Y-117245000D01*
X128724000Y-115165000D02*
X128724000Y-114268000D01*
X128684000Y-118106000D02*
X128684000Y-117245000D01*
X128684000Y-115165000D02*
X128684000Y-114304000D01*
X128644000Y-118069000D02*
X128644000Y-117245000D01*
X128644000Y-115165000D02*
X128644000Y-114341000D01*
X128604000Y-118031000D02*
X128604000Y-117245000D01*
X128604000Y-115165000D02*
X128604000Y-114379000D01*
X128564000Y-117990000D02*
X128564000Y-117245000D01*
X128564000Y-115165000D02*
X128564000Y-114420000D01*
X128524000Y-117948000D02*
X128524000Y-117245000D01*
X128524000Y-115165000D02*
X128524000Y-114462000D01*
X128484000Y-117904000D02*
X128484000Y-117245000D01*
X128484000Y-115165000D02*
X128484000Y-114506000D01*
X128444000Y-117858000D02*
X128444000Y-117245000D01*
X128444000Y-115165000D02*
X128444000Y-114552000D01*
X128404000Y-117810000D02*
X128404000Y-114600000D01*
X128364000Y-117759000D02*
X128364000Y-114651000D01*
X128324000Y-117705000D02*
X128324000Y-114705000D01*
X128284000Y-117648000D02*
X128284000Y-114762000D01*
X128244000Y-117588000D02*
X128244000Y-114822000D01*
X128204000Y-117524000D02*
X128204000Y-114886000D01*
X128164000Y-117456000D02*
X128164000Y-114954000D01*
X128124000Y-117383000D02*
X128124000Y-115027000D01*
X128084000Y-117303000D02*
X128084000Y-115107000D01*
X128044000Y-117216000D02*
X128044000Y-115194000D01*
X128004000Y-117120000D02*
X128004000Y-115290000D01*
X127964000Y-117010000D02*
X127964000Y-115400000D01*
X127924000Y-116882000D02*
X127924000Y-115528000D01*
X127884000Y-116723000D02*
X127884000Y-115687000D01*
X127844000Y-116489000D02*
X127844000Y-115921000D01*
X133249775Y-117680000D02*
X132749775Y-117680000D01*
X132999775Y-117930000D02*
X132999775Y-117430000D01*
X170120000Y-116265000D02*
X172780000Y-116265000D01*
X170120000Y-113665000D02*
X170120000Y-116265000D01*
X172780000Y-113665000D02*
X172780000Y-116265000D01*
X170120000Y-113665000D02*
X172780000Y-113665000D01*
X170120000Y-112395000D02*
X170120000Y-111065000D01*
X170120000Y-111065000D02*
X171450000Y-111065000D01*
X108525000Y-97850000D02*
X111185000Y-97850000D01*
X108525000Y-92710000D02*
X108525000Y-97850000D01*
X111185000Y-92710000D02*
X111185000Y-97850000D01*
X108525000Y-92710000D02*
X111185000Y-92710000D01*
X108525000Y-91440000D02*
X108525000Y-90110000D01*
X108525000Y-90110000D02*
X109855000Y-90110000D01*
X146625000Y-97850000D02*
X149285000Y-97850000D01*
X146625000Y-92710000D02*
X146625000Y-97850000D01*
X149285000Y-92710000D02*
X149285000Y-97850000D01*
X146625000Y-92710000D02*
X149285000Y-92710000D01*
X146625000Y-91440000D02*
X146625000Y-90110000D01*
X146625000Y-90110000D02*
X147955000Y-90110000D01*
X135950000Y-98485000D02*
X135950000Y-95825000D01*
X118110000Y-98485000D02*
X135950000Y-98485000D01*
X118110000Y-95825000D02*
X135950000Y-95825000D01*
X118110000Y-98485000D02*
X118110000Y-95825000D01*
X116840000Y-98485000D02*
X115510000Y-98485000D01*
X115510000Y-98485000D02*
X115510000Y-97155000D01*
X115510000Y-89475000D02*
X115510000Y-92135000D01*
X128270000Y-89475000D02*
X115510000Y-89475000D01*
X128270000Y-92135000D02*
X115510000Y-92135000D01*
X128270000Y-89475000D02*
X128270000Y-92135000D01*
X129540000Y-89475000D02*
X130870000Y-89475000D01*
X130870000Y-89475000D02*
X130870000Y-90805000D01*
X176590000Y-95310000D02*
X176590000Y-92650000D01*
X156210000Y-95310000D02*
X176590000Y-95310000D01*
X156210000Y-92650000D02*
X176590000Y-92650000D01*
X156210000Y-95310000D02*
X156210000Y-92650000D01*
X154940000Y-95310000D02*
X153610000Y-95310000D01*
X153610000Y-95310000D02*
X153610000Y-93980000D01*
X174050000Y-98485000D02*
X174050000Y-95825000D01*
X156210000Y-98485000D02*
X174050000Y-98485000D01*
X156210000Y-95825000D02*
X174050000Y-95825000D01*
X156210000Y-98485000D02*
X156210000Y-95825000D01*
X154940000Y-98485000D02*
X153610000Y-98485000D01*
X153610000Y-98485000D02*
X153610000Y-97155000D01*
X153610000Y-89475000D02*
X153610000Y-92135000D01*
X166370000Y-89475000D02*
X153610000Y-89475000D01*
X166370000Y-92135000D02*
X153610000Y-92135000D01*
X166370000Y-89475000D02*
X166370000Y-92135000D01*
X167640000Y-89475000D02*
X168970000Y-89475000D01*
X168970000Y-89475000D02*
X168970000Y-90805000D01*
X188147000Y-137982000D02*
X188147000Y-135322000D01*
X91567000Y-137982000D02*
X188147000Y-137982000D01*
X91567000Y-135322000D02*
X188147000Y-135322000D01*
X91567000Y-137982000D02*
X91567000Y-135322000D01*
X90297000Y-137982000D02*
X88967000Y-137982000D01*
X88967000Y-137982000D02*
X88967000Y-136652000D01*
X102775000Y-110085000D02*
X102775000Y-109755000D01*
X102775000Y-109755000D02*
X109315000Y-109755000D01*
X109315000Y-109755000D02*
X109315000Y-110085000D01*
X102775000Y-112165000D02*
X102775000Y-112495000D01*
X102775000Y-112495000D02*
X109315000Y-112495000D01*
X109315000Y-112495000D02*
X109315000Y-112165000D01*
X102775000Y-113260000D02*
X102775000Y-112930000D01*
X102775000Y-112930000D02*
X109315000Y-112930000D01*
X109315000Y-112930000D02*
X109315000Y-113260000D01*
X102775000Y-115340000D02*
X102775000Y-115670000D01*
X102775000Y-115670000D02*
X109315000Y-115670000D01*
X109315000Y-115670000D02*
X109315000Y-115340000D01*
X102775000Y-116435000D02*
X102775000Y-116105000D01*
X102775000Y-116105000D02*
X109315000Y-116105000D01*
X109315000Y-116105000D02*
X109315000Y-116435000D01*
X102775000Y-118515000D02*
X102775000Y-118845000D01*
X102775000Y-118845000D02*
X109315000Y-118845000D01*
X109315000Y-118845000D02*
X109315000Y-118515000D01*
X102775000Y-119610000D02*
X102775000Y-119280000D01*
X102775000Y-119280000D02*
X109315000Y-119280000D01*
X109315000Y-119280000D02*
X109315000Y-119610000D01*
X102775000Y-121690000D02*
X102775000Y-122020000D01*
X102775000Y-122020000D02*
X109315000Y-122020000D01*
X109315000Y-122020000D02*
X109315000Y-121690000D01*
X102775000Y-122785000D02*
X102775000Y-122455000D01*
X102775000Y-122455000D02*
X109315000Y-122455000D01*
X109315000Y-122455000D02*
X109315000Y-122785000D01*
X102775000Y-124865000D02*
X102775000Y-125195000D01*
X102775000Y-125195000D02*
X109315000Y-125195000D01*
X109315000Y-125195000D02*
X109315000Y-124865000D01*
X168180000Y-107545000D02*
X168180000Y-107215000D01*
X168180000Y-107215000D02*
X174720000Y-107215000D01*
X174720000Y-107215000D02*
X174720000Y-107545000D01*
X168180000Y-109625000D02*
X168180000Y-109955000D01*
X168180000Y-109955000D02*
X174720000Y-109955000D01*
X174720000Y-109955000D02*
X174720000Y-109625000D01*
X114070000Y-91345000D02*
X114400000Y-91345000D01*
X114400000Y-91345000D02*
X114400000Y-97885000D01*
X114400000Y-97885000D02*
X114070000Y-97885000D01*
X111990000Y-91345000D02*
X111660000Y-91345000D01*
X111660000Y-91345000D02*
X111660000Y-97885000D01*
X111660000Y-97885000D02*
X111990000Y-97885000D01*
X152170000Y-91345000D02*
X152500000Y-91345000D01*
X152500000Y-91345000D02*
X152500000Y-97885000D01*
X152500000Y-97885000D02*
X152170000Y-97885000D01*
X150090000Y-91345000D02*
X149760000Y-91345000D01*
X149760000Y-91345000D02*
X149760000Y-97885000D01*
X149760000Y-97885000D02*
X150090000Y-97885000D01*
X139465000Y-118475000D02*
X139465000Y-125600000D01*
X139465000Y-125600000D02*
X140465000Y-126600000D01*
X140465000Y-126600000D02*
X157715000Y-126600000D01*
X157715000Y-126600000D02*
X157715000Y-108350000D01*
X157715000Y-108350000D02*
X139465000Y-108350000D01*
X139465000Y-108350000D02*
X139465000Y-116475000D01*
X117840000Y-105985000D02*
G75*
G02X115840000Y-105985000I-1000000J0D01*
G01*
X115840000Y-105985000D02*
X114190000Y-105985000D01*
X114190000Y-105985000D02*
X114190000Y-131505000D01*
X114190000Y-131505000D02*
X119490000Y-131505000D01*
X119490000Y-131505000D02*
X119490000Y-105985000D01*
X119490000Y-105985000D02*
X117840000Y-105985000D01*
X111700000Y-105925000D02*
X111700000Y-131565000D01*
X111700000Y-131565000D02*
X121980000Y-131565000D01*
X121980000Y-131565000D02*
X121980000Y-105925000D01*
X121980000Y-105925000D02*
X111700000Y-105925000D01*
X138490000Y-95310000D02*
X138490000Y-92650000D01*
X118110000Y-95310000D02*
X138490000Y-95310000D01*
X118110000Y-92650000D02*
X138490000Y-92650000D01*
X118110000Y-95310000D02*
X118110000Y-92650000D01*
X116840000Y-95310000D02*
X115510000Y-95310000D01*
X115510000Y-95310000D02*
X115510000Y-93980000D01*
X90300000Y-112515000D02*
X100200000Y-112515000D01*
X90300000Y-124975000D02*
X100200000Y-124975000D01*
X90300000Y-112515000D02*
X90300000Y-124975000D01*
X100200000Y-112515000D02*
X100200000Y-124975000D01*
X90060000Y-112275000D02*
X91444000Y-112275000D01*
X90060000Y-112275000D02*
X90060000Y-113658000D01*
X89100000Y-114115000D02*
X90300000Y-114115000D01*
X89100000Y-115755000D02*
X90300000Y-115755000D01*
X89100000Y-114115000D02*
X89100000Y-115755000D01*
X90300000Y-114115000D02*
X90300000Y-115755000D01*
X89100000Y-116655000D02*
X90300000Y-116655000D01*
X89100000Y-118296000D02*
X90300000Y-118296000D01*
X89100000Y-116655000D02*
X89100000Y-118296000D01*
X90300000Y-116655000D02*
X90300000Y-118296000D01*
X89100000Y-119196000D02*
X90300000Y-119196000D01*
X89100000Y-120835000D02*
X90300000Y-120835000D01*
X89100000Y-119196000D02*
X89100000Y-120835000D01*
X90300000Y-119196000D02*
X90300000Y-120835000D01*
X89100000Y-121736000D02*
X90300000Y-121736000D01*
X89100000Y-123376000D02*
X90300000Y-123376000D01*
X89100000Y-121736000D02*
X89100000Y-123376000D01*
X90300000Y-121736000D02*
X90300000Y-123376000D01*
X184090000Y-120075000D02*
X186750000Y-120075000D01*
X184090000Y-99695000D02*
X184090000Y-120075000D01*
X186750000Y-99695000D02*
X186750000Y-120075000D01*
X184090000Y-99695000D02*
X186750000Y-99695000D01*
X184090000Y-98425000D02*
X184090000Y-97095000D01*
X184090000Y-97095000D02*
X185420000Y-97095000D01*
D10*
X136665857Y-118362000D02*
X136701571Y-118397714D01*
X136737286Y-118504857D01*
X136737286Y-118576286D01*
X136701571Y-118683429D01*
X136630143Y-118754857D01*
X136558714Y-118790572D01*
X136415857Y-118826286D01*
X136308714Y-118826286D01*
X136165857Y-118790572D01*
X136094429Y-118754857D01*
X136023000Y-118683429D01*
X135987286Y-118576286D01*
X135987286Y-118504857D01*
X136023000Y-118397714D01*
X136058714Y-118362000D01*
X136737286Y-117647714D02*
X136737286Y-118076286D01*
X136737286Y-117862000D02*
X135987286Y-117862000D01*
X136094429Y-117933429D01*
X136165857Y-118004857D01*
X136201571Y-118076286D01*
X122557000Y-103645857D02*
X122521286Y-103681571D01*
X122414143Y-103717286D01*
X122342714Y-103717286D01*
X122235571Y-103681571D01*
X122164143Y-103610143D01*
X122128428Y-103538714D01*
X122092714Y-103395857D01*
X122092714Y-103288714D01*
X122128428Y-103145857D01*
X122164143Y-103074429D01*
X122235571Y-103003000D01*
X122342714Y-102967286D01*
X122414143Y-102967286D01*
X122521286Y-103003000D01*
X122557000Y-103038714D01*
X122842714Y-103038714D02*
X122878428Y-103003000D01*
X122949857Y-102967286D01*
X123128428Y-102967286D01*
X123199857Y-103003000D01*
X123235571Y-103038714D01*
X123271286Y-103110143D01*
X123271286Y-103181571D01*
X123235571Y-103288714D01*
X122807000Y-103717286D01*
X123271286Y-103717286D01*
X135384000Y-132855857D02*
X135348286Y-132891571D01*
X135241143Y-132927286D01*
X135169714Y-132927286D01*
X135062571Y-132891571D01*
X134991143Y-132820143D01*
X134955428Y-132748714D01*
X134919714Y-132605857D01*
X134919714Y-132498714D01*
X134955428Y-132355857D01*
X134991143Y-132284429D01*
X135062571Y-132213000D01*
X135169714Y-132177286D01*
X135241143Y-132177286D01*
X135348286Y-132213000D01*
X135384000Y-132248714D01*
X135634000Y-132177286D02*
X136098286Y-132177286D01*
X135848286Y-132463000D01*
X135955428Y-132463000D01*
X136026857Y-132498714D01*
X136062571Y-132534429D01*
X136098286Y-132605857D01*
X136098286Y-132784429D01*
X136062571Y-132855857D01*
X136026857Y-132891571D01*
X135955428Y-132927286D01*
X135741143Y-132927286D01*
X135669714Y-132891571D01*
X135634000Y-132855857D01*
X126748000Y-115964857D02*
X126712286Y-116000571D01*
X126605143Y-116036286D01*
X126533714Y-116036286D01*
X126426571Y-116000571D01*
X126355143Y-115929143D01*
X126319428Y-115857714D01*
X126283714Y-115714857D01*
X126283714Y-115607714D01*
X126319428Y-115464857D01*
X126355143Y-115393429D01*
X126426571Y-115322000D01*
X126533714Y-115286286D01*
X126605143Y-115286286D01*
X126712286Y-115322000D01*
X126748000Y-115357714D01*
X127390857Y-115536286D02*
X127390857Y-116036286D01*
X127212286Y-115250571D02*
X127033714Y-115786286D01*
X127498000Y-115786286D01*
X170825000Y-116937286D02*
X170825000Y-117473000D01*
X170789286Y-117580143D01*
X170717857Y-117651571D01*
X170610714Y-117687286D01*
X170539286Y-117687286D01*
X171182143Y-117687286D02*
X171182143Y-116937286D01*
X171467858Y-116937286D01*
X171539286Y-116973000D01*
X171575001Y-117008714D01*
X171610715Y-117080143D01*
X171610715Y-117187286D01*
X171575001Y-117258714D01*
X171539286Y-117294429D01*
X171467858Y-117330143D01*
X171182143Y-117330143D01*
X172325001Y-117687286D02*
X171896429Y-117687286D01*
X172110715Y-117687286D02*
X172110715Y-116937286D01*
X172039286Y-117044429D01*
X171967858Y-117115857D01*
X171896429Y-117151571D01*
X109230000Y-88743286D02*
X109230000Y-89279000D01*
X109194286Y-89386143D01*
X109122857Y-89457571D01*
X109015714Y-89493286D01*
X108944286Y-89493286D01*
X109587143Y-89493286D02*
X109587143Y-88743286D01*
X109872858Y-88743286D01*
X109944286Y-88779000D01*
X109980001Y-88814714D01*
X110015715Y-88886143D01*
X110015715Y-88993286D01*
X109980001Y-89064714D01*
X109944286Y-89100429D01*
X109872858Y-89136143D01*
X109587143Y-89136143D01*
X110301429Y-88814714D02*
X110337143Y-88779000D01*
X110408572Y-88743286D01*
X110587143Y-88743286D01*
X110658572Y-88779000D01*
X110694286Y-88814714D01*
X110730001Y-88886143D01*
X110730001Y-88957571D01*
X110694286Y-89064714D01*
X110265715Y-89493286D01*
X110730001Y-89493286D01*
X147330000Y-88743286D02*
X147330000Y-89279000D01*
X147294286Y-89386143D01*
X147222857Y-89457571D01*
X147115714Y-89493286D01*
X147044286Y-89493286D01*
X147687143Y-89493286D02*
X147687143Y-88743286D01*
X147972858Y-88743286D01*
X148044286Y-88779000D01*
X148080001Y-88814714D01*
X148115715Y-88886143D01*
X148115715Y-88993286D01*
X148080001Y-89064714D01*
X148044286Y-89100429D01*
X147972858Y-89136143D01*
X147687143Y-89136143D01*
X148365715Y-88743286D02*
X148830001Y-88743286D01*
X148580001Y-89029000D01*
X148687143Y-89029000D01*
X148758572Y-89064714D01*
X148794286Y-89100429D01*
X148830001Y-89171857D01*
X148830001Y-89350429D01*
X148794286Y-89421857D01*
X148758572Y-89457571D01*
X148687143Y-89493286D01*
X148472858Y-89493286D01*
X148401429Y-89457571D01*
X148365715Y-89421857D01*
X137245286Y-97581572D02*
X136495286Y-97581572D01*
X136495286Y-97295857D01*
X136531000Y-97224429D01*
X136566714Y-97188714D01*
X136638143Y-97153000D01*
X136745286Y-97153000D01*
X136816714Y-97188714D01*
X136852429Y-97224429D01*
X136888143Y-97295857D01*
X136888143Y-97581572D01*
X136566714Y-96867286D02*
X136531000Y-96831572D01*
X136495286Y-96760143D01*
X136495286Y-96581572D01*
X136531000Y-96510143D01*
X136566714Y-96474429D01*
X136638143Y-96438714D01*
X136709571Y-96438714D01*
X136816714Y-96474429D01*
X137245286Y-96903000D01*
X137245286Y-96438714D01*
X132165286Y-91358572D02*
X131415286Y-91358572D01*
X131415286Y-91072857D01*
X131451000Y-91001429D01*
X131486714Y-90965714D01*
X131558143Y-90930000D01*
X131665286Y-90930000D01*
X131736714Y-90965714D01*
X131772429Y-91001429D01*
X131808143Y-91072857D01*
X131808143Y-91358572D01*
X131415286Y-90680000D02*
X131415286Y-90215714D01*
X131701000Y-90465714D01*
X131701000Y-90358572D01*
X131736714Y-90287143D01*
X131772429Y-90251429D01*
X131843857Y-90215714D01*
X132022429Y-90215714D01*
X132093857Y-90251429D01*
X132129571Y-90287143D01*
X132165286Y-90358572D01*
X132165286Y-90572857D01*
X132129571Y-90644286D01*
X132093857Y-90680000D01*
X177885286Y-94533572D02*
X177135286Y-94533572D01*
X177135286Y-94247857D01*
X177171000Y-94176429D01*
X177206714Y-94140714D01*
X177278143Y-94105000D01*
X177385286Y-94105000D01*
X177456714Y-94140714D01*
X177492429Y-94176429D01*
X177528143Y-94247857D01*
X177528143Y-94533572D01*
X177385286Y-93462143D02*
X177885286Y-93462143D01*
X177099571Y-93640714D02*
X177635286Y-93819286D01*
X177635286Y-93355000D01*
X175345286Y-97708572D02*
X174595286Y-97708572D01*
X174595286Y-97422857D01*
X174631000Y-97351429D01*
X174666714Y-97315714D01*
X174738143Y-97280000D01*
X174845286Y-97280000D01*
X174916714Y-97315714D01*
X174952429Y-97351429D01*
X174988143Y-97422857D01*
X174988143Y-97708572D01*
X174595286Y-96601429D02*
X174595286Y-96958572D01*
X174952429Y-96994286D01*
X174916714Y-96958572D01*
X174881000Y-96887143D01*
X174881000Y-96708572D01*
X174916714Y-96637143D01*
X174952429Y-96601429D01*
X175023857Y-96565714D01*
X175202429Y-96565714D01*
X175273857Y-96601429D01*
X175309571Y-96637143D01*
X175345286Y-96708572D01*
X175345286Y-96887143D01*
X175309571Y-96958572D01*
X175273857Y-96994286D01*
X170309286Y-91358572D02*
X169559286Y-91358572D01*
X169559286Y-91072857D01*
X169595000Y-91001429D01*
X169630714Y-90965714D01*
X169702143Y-90930000D01*
X169809286Y-90930000D01*
X169880714Y-90965714D01*
X169916429Y-91001429D01*
X169952143Y-91072857D01*
X169952143Y-91358572D01*
X169559286Y-90287143D02*
X169559286Y-90430000D01*
X169595000Y-90501429D01*
X169630714Y-90537143D01*
X169737857Y-90608572D01*
X169880714Y-90644286D01*
X170166429Y-90644286D01*
X170237857Y-90608572D01*
X170273571Y-90572857D01*
X170309286Y-90501429D01*
X170309286Y-90358572D01*
X170273571Y-90287143D01*
X170237857Y-90251429D01*
X170166429Y-90215714D01*
X169987857Y-90215714D01*
X169916429Y-90251429D01*
X169880714Y-90287143D01*
X169845000Y-90358572D01*
X169845000Y-90501429D01*
X169880714Y-90572857D01*
X169916429Y-90608572D01*
X169987857Y-90644286D01*
X90255286Y-135173572D02*
X89505286Y-135173572D01*
X89505286Y-134887857D01*
X89541000Y-134816429D01*
X89576714Y-134780714D01*
X89648143Y-134745000D01*
X89755286Y-134745000D01*
X89826714Y-134780714D01*
X89862429Y-134816429D01*
X89898143Y-134887857D01*
X89898143Y-135173572D01*
X89826714Y-134316429D02*
X89791000Y-134387857D01*
X89755286Y-134423572D01*
X89683857Y-134459286D01*
X89648143Y-134459286D01*
X89576714Y-134423572D01*
X89541000Y-134387857D01*
X89505286Y-134316429D01*
X89505286Y-134173572D01*
X89541000Y-134102143D01*
X89576714Y-134066429D01*
X89648143Y-134030714D01*
X89683857Y-134030714D01*
X89755286Y-134066429D01*
X89791000Y-134102143D01*
X89826714Y-134173572D01*
X89826714Y-134316429D01*
X89862429Y-134387857D01*
X89898143Y-134423572D01*
X89969571Y-134459286D01*
X90112429Y-134459286D01*
X90183857Y-134423572D01*
X90219571Y-134387857D01*
X90255286Y-134316429D01*
X90255286Y-134173572D01*
X90219571Y-134102143D01*
X90183857Y-134066429D01*
X90112429Y-134030714D01*
X89969571Y-134030714D01*
X89898143Y-134066429D01*
X89862429Y-134102143D01*
X89826714Y-134173572D01*
X101729000Y-110067286D02*
X101479000Y-109710143D01*
X101300428Y-110067286D02*
X101300428Y-109317286D01*
X101586143Y-109317286D01*
X101657571Y-109353000D01*
X101693286Y-109388714D01*
X101729000Y-109460143D01*
X101729000Y-109567286D01*
X101693286Y-109638714D01*
X101657571Y-109674429D01*
X101586143Y-109710143D01*
X101300428Y-109710143D01*
X102443286Y-110067286D02*
X102014714Y-110067286D01*
X102229000Y-110067286D02*
X102229000Y-109317286D01*
X102157571Y-109424429D01*
X102086143Y-109495857D01*
X102014714Y-109531571D01*
X101729000Y-113242286D02*
X101479000Y-112885143D01*
X101300428Y-113242286D02*
X101300428Y-112492286D01*
X101586143Y-112492286D01*
X101657571Y-112528000D01*
X101693286Y-112563714D01*
X101729000Y-112635143D01*
X101729000Y-112742286D01*
X101693286Y-112813714D01*
X101657571Y-112849429D01*
X101586143Y-112885143D01*
X101300428Y-112885143D01*
X102014714Y-112563714D02*
X102050428Y-112528000D01*
X102121857Y-112492286D01*
X102300428Y-112492286D01*
X102371857Y-112528000D01*
X102407571Y-112563714D01*
X102443286Y-112635143D01*
X102443286Y-112706571D01*
X102407571Y-112813714D01*
X101979000Y-113242286D01*
X102443286Y-113242286D01*
X101729000Y-116417286D02*
X101479000Y-116060143D01*
X101300428Y-116417286D02*
X101300428Y-115667286D01*
X101586143Y-115667286D01*
X101657571Y-115703000D01*
X101693286Y-115738714D01*
X101729000Y-115810143D01*
X101729000Y-115917286D01*
X101693286Y-115988714D01*
X101657571Y-116024429D01*
X101586143Y-116060143D01*
X101300428Y-116060143D01*
X101979000Y-115667286D02*
X102443286Y-115667286D01*
X102193286Y-115953000D01*
X102300428Y-115953000D01*
X102371857Y-115988714D01*
X102407571Y-116024429D01*
X102443286Y-116095857D01*
X102443286Y-116274429D01*
X102407571Y-116345857D01*
X102371857Y-116381571D01*
X102300428Y-116417286D01*
X102086143Y-116417286D01*
X102014714Y-116381571D01*
X101979000Y-116345857D01*
X101729000Y-119592286D02*
X101479000Y-119235143D01*
X101300428Y-119592286D02*
X101300428Y-118842286D01*
X101586143Y-118842286D01*
X101657571Y-118878000D01*
X101693286Y-118913714D01*
X101729000Y-118985143D01*
X101729000Y-119092286D01*
X101693286Y-119163714D01*
X101657571Y-119199429D01*
X101586143Y-119235143D01*
X101300428Y-119235143D01*
X102371857Y-119092286D02*
X102371857Y-119592286D01*
X102193286Y-118806571D02*
X102014714Y-119342286D01*
X102479000Y-119342286D01*
X101729000Y-122767286D02*
X101479000Y-122410143D01*
X101300428Y-122767286D02*
X101300428Y-122017286D01*
X101586143Y-122017286D01*
X101657571Y-122053000D01*
X101693286Y-122088714D01*
X101729000Y-122160143D01*
X101729000Y-122267286D01*
X101693286Y-122338714D01*
X101657571Y-122374429D01*
X101586143Y-122410143D01*
X101300428Y-122410143D01*
X102407571Y-122017286D02*
X102050428Y-122017286D01*
X102014714Y-122374429D01*
X102050428Y-122338714D01*
X102121857Y-122303000D01*
X102300428Y-122303000D01*
X102371857Y-122338714D01*
X102407571Y-122374429D01*
X102443286Y-122445857D01*
X102443286Y-122624429D01*
X102407571Y-122695857D01*
X102371857Y-122731571D01*
X102300428Y-122767286D01*
X102121857Y-122767286D01*
X102050428Y-122731571D01*
X102014714Y-122695857D01*
X167134000Y-107400286D02*
X166884000Y-107043143D01*
X166705428Y-107400286D02*
X166705428Y-106650286D01*
X166991143Y-106650286D01*
X167062571Y-106686000D01*
X167098286Y-106721714D01*
X167134000Y-106793143D01*
X167134000Y-106900286D01*
X167098286Y-106971714D01*
X167062571Y-107007429D01*
X166991143Y-107043143D01*
X166705428Y-107043143D01*
X167776857Y-106650286D02*
X167634000Y-106650286D01*
X167562571Y-106686000D01*
X167526857Y-106721714D01*
X167455428Y-106828857D01*
X167419714Y-106971714D01*
X167419714Y-107257429D01*
X167455428Y-107328857D01*
X167491143Y-107364571D01*
X167562571Y-107400286D01*
X167705428Y-107400286D01*
X167776857Y-107364571D01*
X167812571Y-107328857D01*
X167848286Y-107257429D01*
X167848286Y-107078857D01*
X167812571Y-107007429D01*
X167776857Y-106971714D01*
X167705428Y-106936000D01*
X167562571Y-106936000D01*
X167491143Y-106971714D01*
X167455428Y-107007429D01*
X167419714Y-107078857D01*
X111972286Y-98931000D02*
X111615143Y-99181000D01*
X111972286Y-99359572D02*
X111222286Y-99359572D01*
X111222286Y-99073857D01*
X111258000Y-99002429D01*
X111293714Y-98966714D01*
X111365143Y-98931000D01*
X111472286Y-98931000D01*
X111543714Y-98966714D01*
X111579429Y-99002429D01*
X111615143Y-99073857D01*
X111615143Y-99359572D01*
X111222286Y-98681000D02*
X111222286Y-98181000D01*
X111972286Y-98502429D01*
X150072286Y-98804000D02*
X149715143Y-99054000D01*
X150072286Y-99232572D02*
X149322286Y-99232572D01*
X149322286Y-98946857D01*
X149358000Y-98875429D01*
X149393714Y-98839714D01*
X149465143Y-98804000D01*
X149572286Y-98804000D01*
X149643714Y-98839714D01*
X149679429Y-98875429D01*
X149715143Y-98946857D01*
X149715143Y-99232572D01*
X149643714Y-98375429D02*
X149608000Y-98446857D01*
X149572286Y-98482572D01*
X149500857Y-98518286D01*
X149465143Y-98518286D01*
X149393714Y-98482572D01*
X149358000Y-98446857D01*
X149322286Y-98375429D01*
X149322286Y-98232572D01*
X149358000Y-98161143D01*
X149393714Y-98125429D01*
X149465143Y-98089714D01*
X149500857Y-98089714D01*
X149572286Y-98125429D01*
X149608000Y-98161143D01*
X149643714Y-98232572D01*
X149643714Y-98375429D01*
X149679429Y-98446857D01*
X149715143Y-98482572D01*
X149786571Y-98518286D01*
X149929429Y-98518286D01*
X150000857Y-98482572D01*
X150036571Y-98446857D01*
X150072286Y-98375429D01*
X150072286Y-98232572D01*
X150036571Y-98161143D01*
X150000857Y-98125429D01*
X149929429Y-98089714D01*
X149786571Y-98089714D01*
X149715143Y-98125429D01*
X149679429Y-98161143D01*
X149643714Y-98232572D01*
X139785286Y-94406572D02*
X139035286Y-94406572D01*
X139035286Y-94120857D01*
X139071000Y-94049429D01*
X139106714Y-94013714D01*
X139178143Y-93978000D01*
X139285286Y-93978000D01*
X139356714Y-94013714D01*
X139392429Y-94049429D01*
X139428143Y-94120857D01*
X139428143Y-94406572D01*
X139785286Y-93263714D02*
X139785286Y-93692286D01*
X139785286Y-93478000D02*
X139035286Y-93478000D01*
X139142429Y-93549429D01*
X139213857Y-93620857D01*
X139249571Y-93692286D01*
X90313000Y-112063571D02*
X90420143Y-112099286D01*
X90598714Y-112099286D01*
X90670143Y-112063571D01*
X90705857Y-112027857D01*
X90741572Y-111956429D01*
X90741572Y-111885000D01*
X90705857Y-111813571D01*
X90670143Y-111777857D01*
X90598714Y-111742143D01*
X90455857Y-111706429D01*
X90384429Y-111670714D01*
X90348714Y-111635000D01*
X90313000Y-111563571D01*
X90313000Y-111492143D01*
X90348714Y-111420714D01*
X90384429Y-111385000D01*
X90455857Y-111349286D01*
X90634429Y-111349286D01*
X90741572Y-111385000D01*
X90991572Y-111349286D02*
X91170143Y-112099286D01*
X91313000Y-111563571D01*
X91455858Y-112099286D01*
X91634429Y-111349286D01*
X92313001Y-112099286D02*
X91884429Y-112099286D01*
X92098715Y-112099286D02*
X92098715Y-111349286D01*
X92027286Y-111456429D01*
X91955858Y-111527857D01*
X91884429Y-111563571D01*
X184866428Y-96434286D02*
X184866428Y-95684286D01*
X185152143Y-95684286D01*
X185223571Y-95720000D01*
X185259286Y-95755714D01*
X185295000Y-95827143D01*
X185295000Y-95934286D01*
X185259286Y-96005714D01*
X185223571Y-96041429D01*
X185152143Y-96077143D01*
X184866428Y-96077143D01*
X185545000Y-95684286D02*
X186045000Y-95684286D01*
X185723571Y-96434286D01*
M02*
