G04 #@! TF.FileFunction,Soldermask,Bot*
%FSLAX46Y46*%
G04 Gerber Fmt 4.6, Leading zero omitted, Abs format (unit mm)*
G04 Created by KiCad (PCBNEW 4.0.5) date Mon Apr 20 22:21:36 2020*
%MOMM*%
%LPD*%
G01*
G04 APERTURE LIST*
%ADD10C,0.100000*%
%ADD11C,3.301600*%
%ADD12C,1.501600*%
%ADD13R,1.701600X1.701600*%
%ADD14C,1.701600*%
%ADD15R,1.801600X1.801600*%
%ADD16O,1.801600X1.801600*%
%ADD17O,1.701600X1.701600*%
%ADD18R,1.524000X1.524000*%
%ADD19C,1.524000*%
G04 APERTURE END LIST*
D10*
D11*
X93930000Y-105300000D03*
D12*
X137160000Y-116205000D03*
X137160000Y-113705000D03*
X120650000Y-104140000D03*
X118150000Y-104140000D03*
X133350000Y-133350000D03*
X130850000Y-133350000D03*
D13*
X131445000Y-116205000D03*
D14*
X129445000Y-116205000D03*
D15*
X171450000Y-112395000D03*
D16*
X171450000Y-114935000D03*
D15*
X109855000Y-91440000D03*
D16*
X109855000Y-93980000D03*
X109855000Y-96520000D03*
D15*
X147955000Y-91440000D03*
D16*
X147955000Y-93980000D03*
X147955000Y-96520000D03*
D15*
X116840000Y-97155000D03*
D16*
X119380000Y-97155000D03*
X121920000Y-97155000D03*
X124460000Y-97155000D03*
X127000000Y-97155000D03*
X129540000Y-97155000D03*
X132080000Y-97155000D03*
X134620000Y-97155000D03*
D15*
X129540000Y-90805000D03*
D16*
X127000000Y-90805000D03*
X124460000Y-90805000D03*
X121920000Y-90805000D03*
X119380000Y-90805000D03*
X116840000Y-90805000D03*
D15*
X154940000Y-93980000D03*
D16*
X157480000Y-93980000D03*
X160020000Y-93980000D03*
X162560000Y-93980000D03*
X165100000Y-93980000D03*
X167640000Y-93980000D03*
X170180000Y-93980000D03*
X172720000Y-93980000D03*
X175260000Y-93980000D03*
D15*
X154940000Y-97155000D03*
D16*
X157480000Y-97155000D03*
X160020000Y-97155000D03*
X162560000Y-97155000D03*
X165100000Y-97155000D03*
X167640000Y-97155000D03*
X170180000Y-97155000D03*
X172720000Y-97155000D03*
D15*
X167640000Y-90805000D03*
D16*
X165100000Y-90805000D03*
X162560000Y-90805000D03*
X160020000Y-90805000D03*
X157480000Y-90805000D03*
X154940000Y-90805000D03*
D15*
X90297000Y-136652000D03*
D16*
X92837000Y-136652000D03*
X95377000Y-136652000D03*
X97917000Y-136652000D03*
X100457000Y-136652000D03*
X102997000Y-136652000D03*
X105537000Y-136652000D03*
X108077000Y-136652000D03*
X110617000Y-136652000D03*
X113157000Y-136652000D03*
X115697000Y-136652000D03*
X118237000Y-136652000D03*
X120777000Y-136652000D03*
X123317000Y-136652000D03*
X125857000Y-136652000D03*
X128397000Y-136652000D03*
X130937000Y-136652000D03*
X133477000Y-136652000D03*
X136017000Y-136652000D03*
X138557000Y-136652000D03*
X141097000Y-136652000D03*
X143637000Y-136652000D03*
X146177000Y-136652000D03*
X148717000Y-136652000D03*
X151257000Y-136652000D03*
X153797000Y-136652000D03*
X156337000Y-136652000D03*
X158877000Y-136652000D03*
X161417000Y-136652000D03*
X163957000Y-136652000D03*
X166497000Y-136652000D03*
X169037000Y-136652000D03*
X171577000Y-136652000D03*
X174117000Y-136652000D03*
X176657000Y-136652000D03*
X179197000Y-136652000D03*
X181737000Y-136652000D03*
X184277000Y-136652000D03*
X186817000Y-136652000D03*
D14*
X102235000Y-111125000D03*
D17*
X109855000Y-111125000D03*
D14*
X102235000Y-114300000D03*
D17*
X109855000Y-114300000D03*
D14*
X102235000Y-117475000D03*
D17*
X109855000Y-117475000D03*
D14*
X102235000Y-120650000D03*
D17*
X109855000Y-120650000D03*
D14*
X102235000Y-123825000D03*
D17*
X109855000Y-123825000D03*
D14*
X167640000Y-108585000D03*
D17*
X175260000Y-108585000D03*
D14*
X113030000Y-90805000D03*
D17*
X113030000Y-98425000D03*
D14*
X151130000Y-90805000D03*
D17*
X151130000Y-98425000D03*
D18*
X144780000Y-116205000D03*
D19*
X144780000Y-118745000D03*
X144780000Y-113665000D03*
X142240000Y-118745000D03*
X142240000Y-121285000D03*
X142240000Y-116205000D03*
X144780000Y-121285000D03*
X147320000Y-121285000D03*
X149860000Y-121285000D03*
X144780000Y-123825000D03*
X147320000Y-123825000D03*
X149860000Y-123825000D03*
X152400000Y-123825000D03*
X152400000Y-121285000D03*
X152400000Y-118745000D03*
X152400000Y-116205000D03*
X152400000Y-111125000D03*
X154940000Y-121285000D03*
X154940000Y-118745000D03*
X154940000Y-116205000D03*
X154940000Y-113665000D03*
X152400000Y-113665000D03*
X149860000Y-113665000D03*
X147320000Y-113665000D03*
X142240000Y-113665000D03*
X149860000Y-111125000D03*
X147320000Y-111125000D03*
X144780000Y-111125000D03*
D13*
X113030000Y-107315000D03*
D17*
X120650000Y-130175000D03*
X113030000Y-109855000D03*
X120650000Y-127635000D03*
X113030000Y-112395000D03*
X120650000Y-125095000D03*
X113030000Y-114935000D03*
X120650000Y-122555000D03*
X113030000Y-117475000D03*
X120650000Y-120015000D03*
X113030000Y-120015000D03*
X120650000Y-117475000D03*
X113030000Y-122555000D03*
X120650000Y-114935000D03*
X113030000Y-125095000D03*
X120650000Y-112395000D03*
X113030000Y-127635000D03*
X120650000Y-109855000D03*
X113030000Y-130175000D03*
X120650000Y-107315000D03*
D15*
X116840000Y-93980000D03*
D16*
X119380000Y-93980000D03*
X121920000Y-93980000D03*
X124460000Y-93980000D03*
X127000000Y-93980000D03*
X129540000Y-93980000D03*
X132080000Y-93980000D03*
X134620000Y-93980000D03*
X137160000Y-93980000D03*
D13*
X91440000Y-114935000D03*
D17*
X99060000Y-122555000D03*
X91440000Y-117475000D03*
X99060000Y-120015000D03*
X91440000Y-120015000D03*
X99060000Y-117475000D03*
X91440000Y-122555000D03*
X99060000Y-114935000D03*
D15*
X185420000Y-98425000D03*
D16*
X185420000Y-100965000D03*
X185420000Y-103505000D03*
X185420000Y-106045000D03*
X185420000Y-108585000D03*
X185420000Y-111125000D03*
X185420000Y-113665000D03*
X185420000Y-116205000D03*
X185420000Y-118745000D03*
M02*
