M48
INCH,TZ
T1C0.016
T2C0.022
T3C0.028
T4C0.031
T5C0.039
T6C0.126
%
G90
G05
T1
X45000Y-51750
X45500Y-47250
X46500Y-49250
X48500Y-44250
X48500Y-45250
X49000Y-40250
X49500Y-49250
X50000Y-39250
X50500Y-47250
X51000Y-39750
X52000Y-40750
X53000Y-41750
X53500Y-51250
X54000Y-38750
X54000Y-43750
X54500Y-43250
X55500Y-51750
X56000Y-41750
X56500Y-41250
X56500Y-52750
X57000Y-42250
X57000Y-49750
X57500Y-40750
X58000Y-38750
X58000Y-50250
X58500Y-40250
X58500Y-50750
X59500Y-41250
X59500Y-51250
X60000Y-39750
X60500Y-39250
X60500Y-51750
X61000Y-52250
X61500Y-45250
X62000Y-44750
X62000Y-52750
X62500Y-46250
X63500Y-47250
X64000Y-40250
X64500Y-48250
X65000Y-39250
X65500Y-49750
X66000Y-39750
X66500Y-50250
X67000Y-42250
X67500Y-50750
X68000Y-41250
X68500Y-51250
X70750Y-40250
X71250Y-39750
X71750Y-39250
X72250Y-40750
T2
X46000Y-51250
X51500Y-48250
X70500Y-46750
T3
X46516Y-41000
X47500Y-41000
X51516Y-52500
X52500Y-52500
X54000Y-44766
X54000Y-45750
T4
X36000Y-45250
X36000Y-46250
X36000Y-47250
X36000Y-48250
X39000Y-45250
X39000Y-46250
X39000Y-47250
X39000Y-48250
X40250Y-43750
X40250Y-45000
X40250Y-46250
X40250Y-47500
X40250Y-48750
X43250Y-43750
X43250Y-45000
X43250Y-46250
X43250Y-47500
X43250Y-48750
X44500Y-35750
X44500Y-38750
X44500Y-42250
X44500Y-43250
X44500Y-44250
X44500Y-45250
X44500Y-46250
X44500Y-47250
X44500Y-48250
X44500Y-49250
X44500Y-50250
X44500Y-51250
X47500Y-42250
X47500Y-43250
X47500Y-44250
X47500Y-45250
X47500Y-46250
X47500Y-47250
X47500Y-48250
X47500Y-49250
X47500Y-50250
X47500Y-51250
X50963Y-45750
X51750Y-45750
X56000Y-44750
X56000Y-45750
X56000Y-46750
X56000Y-47750
X57000Y-43750
X57000Y-44750
X57000Y-45750
X57000Y-46750
X57000Y-47750
X57000Y-48750
X58000Y-43750
X58000Y-44750
X58000Y-47750
X58000Y-48750
X59000Y-43750
X59000Y-44750
X59000Y-47750
X59000Y-48750
X59500Y-35750
X59500Y-38750
X60000Y-43750
X60000Y-44750
X60000Y-45750
X60000Y-46750
X60000Y-47750
X60000Y-48750
X61000Y-44750
X61000Y-45750
X61000Y-46750
X61000Y-47750
X66000Y-42750
X69000Y-42750
T5
X35550Y-53800
X36550Y-53800
X37550Y-53800
X38550Y-53800
X39550Y-53800
X40550Y-53800
X41550Y-53800
X42550Y-53800
X43250Y-36000
X43250Y-37000
X43250Y-38000
X43550Y-53800
X44550Y-53800
X45550Y-53800
X46000Y-35750
X46000Y-37000
X46000Y-38250
X46550Y-53800
X47000Y-35750
X47000Y-37000
X47000Y-38250
X47550Y-53800
X48000Y-35750
X48000Y-37000
X48000Y-38250
X48550Y-53800
X49000Y-35750
X49000Y-37000
X49000Y-38250
X49550Y-53800
X50000Y-35750
X50000Y-37000
X50000Y-38250
X50550Y-53800
X51000Y-35750
X51000Y-37000
X51000Y-38250
X51550Y-53800
X52000Y-37000
X52000Y-38250
X52550Y-53800
X53000Y-37000
X53000Y-38250
X53550Y-53800
X54000Y-37000
X54550Y-53800
X55550Y-53800
X56550Y-53800
X57550Y-53800
X58250Y-36000
X58250Y-37000
X58250Y-38000
X58550Y-53800
X59550Y-53800
X60550Y-53800
X61000Y-35750
X61000Y-37000
X61000Y-38250
X61550Y-53800
X62000Y-35750
X62000Y-37000
X62000Y-38250
X62550Y-53800
X63000Y-35750
X63000Y-37000
X63000Y-38250
X63550Y-53800
X64000Y-35750
X64000Y-37000
X64000Y-38250
X64550Y-53800
X65000Y-35750
X65000Y-37000
X65000Y-38250
X65550Y-53800
X66000Y-35750
X66000Y-37000
X66000Y-38250
X66550Y-53800
X67000Y-37000
X67000Y-38250
X67500Y-44250
X67500Y-45250
X67550Y-53800
X68000Y-37000
X68000Y-38250
X68550Y-53800
X69000Y-37000
X69550Y-53800
X70550Y-53800
X71550Y-53800
X72550Y-53800
X73000Y-38750
X73000Y-39750
X73000Y-40750
X73000Y-41750
X73000Y-42750
X73000Y-43750
X73000Y-44750
X73000Y-45750
X73000Y-46750
X73550Y-53800
T6
X36980Y-41457
T0
M30
